<?xml version="1.0" encoding="UTF-8" standalone="no"?>
<svg
   xmlns:dc="http://purl.org/dc/elements/1.1/"
   xmlns:cc="http://creativecommons.org/ns#"
   xmlns:rdf="http://www.w3.org/1999/02/22-rdf-syntax-ns#"
   xmlns:svg="http://www.w3.org/2000/svg"
   xmlns="http://www.w3.org/2000/svg"
   id="svg8176"
   version="1.1"
   viewBox="0 0 210 297"
   height="297mm"
   width="210mm">
  <defs
     id="defs8170" />
  <metadata
     id="metadata8173">
    <rdf:RDF>
      <cc:Work
         rdf:about="">
        <dc:format>image/svg+xml</dc:format>
        <dc:type
           rdf:resource="http://purl.org/dc/dcmitype/StillImage" />
        <dc:title></dc:title>
      </cc:Work>
    </rdf:RDF>
  </metadata>
  <g
     id="layer1">
    <path
       id="path5939"
       style="fill:#a60c2e;fill-opacity:1;fill-rule:evenodd;stroke:none;stroke-width:0.35277775"
       d="m 66.57759,113.31883 c 0.10513,-0.003 0.21167,-0.003 0.31962,-0.003 1.91664,0 3.73627,0.34219 5.37174,0.96308 l 10e-4,-8.16328 c 0,-1.51976 0.57221,-2.34632 1.38818,-2.89701 0.78881,0.55951 1.403,1.3963 1.403,2.89701 l -0.0176,9.59027 c 0.69003,0.46672 1.3201,0.99025 1.87466,1.5621 l 0.0138,-11.19364 c 0,-2.55129 -1.35643,-3.96875 -2.84303,-4.8447 -0.14324,-0.072 -0.28858,-0.16477 -0.42334,-0.21063 -0.12841,0.0515 -0.26917,0.12241 -0.42404,0.21061 -1.44004,0.82162 -2.84268,2.29835 -2.84268,4.8447 l -0.005,6.23111 h -1.94239 l -0.007,-6.09953 c 0,-5.05389 2.21403,-7.720888 5.17913,-9.405758 2.78095,1.68487 5.18089,4.352568 5.18089,9.405758 l 0.006,6.09953 h 1.87467 l -0.008,-6.21277 c 0,-6.00075 -3.12315,-9.281928 -6.71654,-11.403188 0,0 -0.28293,-0.16863 -0.33726,-0.18027 -0.0532,0.0116 -0.3358,0.18027 -0.3358,0.18027 -3.45405,1.95757 -6.7176,5.402438 -6.7176,11.403188 z" />
    <path
       id="path5871"
       style="fill:#231f20;fill-opacity:1;fill-rule:nonzero;stroke:none;stroke-width:0.35277775"
       d="m 89.885832,107.56107 c -0.03104,0.4191 -0.04692,0.86042 -0.04692,1.32397 v 2.38831 c 0,0.88865 0.02187,1.37795 0.06703,1.46897 0.04375,0.091 0.203553,0.13617 0.477309,0.13617 h 0.313619 v 0.26035 c -0.4953,-0.0205 -0.915811,-0.0307 -1.260475,-0.0307 -0.347486,0 -0.764822,0.0102 -1.252361,0.0307 v -0.26035 h 0.351367 c 0.184855,0 0.303741,-0.0247 0.360539,-0.0734 0.05609,-0.0487 0.08996,-0.14429 0.105127,-0.28681 0.02681,-0.32703 0.04092,-0.74895 0.04092,-1.26577 v -2.39254 c 0,-0.47166 -0.0099,-0.90452 -0.02928,-1.29892 h -0.427214 c -0.689328,0 -1.069622,0.0166 -1.139825,0.0483 -0.06985,0.0325 -0.115711,0.15628 -0.137583,0.37324 l -0.05891,0.5595 h -0.260703 l 0.0088,-0.49812 c 0,-0.20038 -0.01764,-0.48966 -0.05468,-0.86607 1.514122,0.0208 2.403828,0.0307 2.670528,0.0307 l 2.325176,-0.0307 c -0.05292,0.47131 -0.08396,0.92639 -0.09207,1.36419 h -0.260703 l -0.04163,-0.54716 c -0.01729,-0.18838 -0.04128,-0.30056 -0.07091,-0.33549 -0.0321,-0.0349 -0.100189,-0.0561 -0.206728,-0.0646 -0.30868,-0.0222 -0.659341,-0.0339 -1.052688,-0.0339 z" />
    <path
       id="path5875"
       style="fill:#231f20;fill-opacity:1;fill-rule:nonzero;stroke:none;stroke-width:0.35277775"
       d="m 93.660129,110.77932 h 2.120194 l -1.059744,-2.53894 z m 2.269067,0.3369 h -2.422877 l -0.288573,0.68898 c -0.186973,0.44732 -0.279752,0.72107 -0.279752,0.82197 0,0.0638 0.01693,0.11042 0.05186,0.13829 0.03492,0.0275 0.122767,0.0497 0.265994,0.067 l 0.402166,0.0459 v 0.26035 c -0.268816,-0.0205 -0.570441,-0.0307 -0.904875,-0.0307 -0.400402,0 -0.75318,0.0102 -1.056569,0.0307 v -0.26035 l 0.124883,-0.004 c 0.194734,-0.005 0.320675,-0.0254 0.377472,-0.061 0.05786,-0.0342 0.117828,-0.12065 0.182739,-0.25753 0.19685,-0.40217 0.398639,-0.83679 0.604309,-1.30352 l 1.148643,-2.6109 c 0.305507,-0.69286 0.51435,-1.19557 0.626182,-1.50883 h 0.291393 l 2.112432,4.93324 c 0.141816,0.33478 0.235656,0.53693 0.283633,0.60536 0.04692,0.0688 0.101954,0.11748 0.162983,0.14641 0.06068,0.0296 0.198615,0.0501 0.413457,0.061 v 0.26035 c -0.357717,-0.0205 -0.699207,-0.0307 -1.023761,-0.0307 -0.302683,0 -0.709083,0.0102 -1.218496,0.0307 v -0.26035 l 0.414515,-0.0251 c 0.148873,-0.0113 0.234598,-0.0265 0.262819,-0.0462 0.04163,-0.0307 0.0628,-0.0695 0.0628,-0.11748 0,-0.0504 -0.04198,-0.18133 -0.123825,-0.3937 z" />
    <path
       id="path5879"
       style="fill:#231f20;fill-opacity:1;fill-rule:nonzero;stroke:none;stroke-width:0.35277775"
       d="m 100.18479,112.71924 c 0.27482,0.0145 0.54152,0.0215 0.80116,0.0215 0.52423,0 0.93662,-0.0141 1.23225,-0.0423 0.20673,-0.0222 0.42051,-0.0621 0.64206,-0.12171 l 0.25082,-0.98566 h 0.26071 c -0.072,0.53093 -0.12771,1.02623 -0.16863,1.4866 -0.25083,0.0423 -0.59443,0.0642 -1.02976,0.0642 l -1.99249,-0.0339 c -0.268817,0 -0.686152,0.0102 -1.252712,0.0307 v -0.21449 c 0.22507,-0.0974 0.357716,-0.20178 0.398637,-0.31397 0.04127,-0.11112 0.06103,-0.55351 0.06103,-1.32644 v -2.30117 c 0,-0.83679 -0.01976,-1.30351 -0.06103,-1.39947 -0.03986,-0.0967 -0.153811,-0.14429 -0.340429,-0.14429 H 98.52991 v -0.26105 c 0.667104,0.0212 1.109839,0.031 1.327504,0.031 0.291396,0 0.687206,-0.01 1.185336,-0.031 v 0.26106 h -0.51929 c -0.14782,0 -0.2406,0.0423 -0.27975,0.12735 -0.0388,0.0854 -0.0589,0.43921 -0.0589,1.0608 v 2.66524 l 0.013,1.18004 z" />
    <path
       id="path5883"
       style="fill:#231f20;fill-opacity:1;fill-rule:nonzero;stroke:none;stroke-width:0.35277775"
       d="m 105.51212,112.71924 c 0.27376,0.0145 0.54046,0.0215 0.80116,0.0215 0.52529,0 0.93557,-0.0141 1.23225,-0.0423 0.20673,-0.0222 0.42052,-0.0621 0.64135,-0.12171 l 0.25154,-0.98566 h 0.2607 c -0.072,0.53093 -0.12771,1.02623 -0.16863,1.4866 -0.25082,0.0423 -0.59443,0.0642 -1.02976,0.0642 l -1.99355,-0.0339 c -0.26775,0 -0.68509,0.0102 -1.25165,0.0307 v -0.21449 c 0.22507,-0.0974 0.35878,-0.20178 0.39864,-0.31397 0.0409,-0.11112 0.061,-0.55351 0.061,-1.32644 v -2.30117 c 0,-0.83679 -0.0201,-1.30351 -0.06,-1.39947 -0.0409,-0.0967 -0.15487,-0.14429 -0.34149,-0.14429 h -0.4565 v -0.26105 c 0.66605,0.0212 1.10949,0.031 1.32821,0.031 0.29175,0 0.68616,-0.01 1.18463,-0.031 v 0.26106 h -0.51929 c -0.14711,0 -0.24095,0.0423 -0.27975,0.12735 -0.0388,0.0854 -0.0589,0.43921 -0.0589,1.0608 v 2.66524 l 0.013,1.18004 z" />
    <path
       id="path5887"
       style="fill:#231f20;fill-opacity:1;fill-rule:nonzero;stroke:none;stroke-width:0.35277775"
       d="m 109.30138,112.87842 h 0.26458 c 0.26176,0 0.41769,-0.0628 0.46955,-0.18874 0.0519,-0.12594 0.078,-0.72849 0.078,-1.80763 v -1.4217 c 0,-1.1183 -0.0233,-1.73531 -0.0681,-1.84961 -0.0448,-0.11465 -0.1785,-0.1718 -0.40357,-0.1718 h -0.34044 v -0.26106 c 0.46743,0.0208 0.92992,0.031 1.38536,0.031 0.38029,0 0.72601,-0.0102 1.0354,-0.031 v 0.26106 h -0.32561 c -0.20038,0 -0.32632,0.0236 -0.37712,0.0713 -0.0501,0.0473 -0.0801,0.16792 -0.0882,0.36018 -0.0138,0.29951 -0.0208,0.8322 -0.0208,1.59809 v 1.44709 c 0,1.08761 0.024,1.68698 0.072,1.7974 0.0469,0.11007 0.20037,0.16546 0.46037,0.16546 h 0.2794 v 0.26035 c -0.34643,-0.0205 -0.7239,-0.0307 -1.13241,-0.0307 -0.47625,0 -0.90594,0.0102 -1.28835,0.0307 z" />
    <path
       id="path5891"
       style="fill:#231f20;fill-opacity:1;fill-rule:nonzero;stroke:none;stroke-width:0.35277775"
       d="m 114.01255,108.11486 v 2.90265 c 0,0.66076 0.0116,1.12148 0.0378,1.38219 0.019,0.19896 0.0529,0.31961 0.10018,0.36336 0.0459,0.0438 0.18027,0.0744 0.40323,0.0942 l 0.27093,0.0212 v 0.26035 c -0.30586,-0.0205 -0.58279,-0.0307 -0.82938,-0.0307 -0.17039,0 -0.56409,0.0102 -1.17828,0.0307 v -0.26035 h 0.30269 c 0.18238,0 0.30233,-0.0251 0.35842,-0.0759 0.0561,-0.0497 0.0907,-0.14923 0.10477,-0.29775 0.031,-0.30727 0.0469,-0.72496 0.0469,-1.25377 v -2.08456 c 0,-0.39053 -0.005,-0.77894 -0.0127,-1.16205 -0.006,-0.16158 -0.0272,-0.2727 -0.0653,-0.33303 -0.0378,-0.06 -0.0924,-0.1143 -0.16545,-0.16122 -0.073,-0.0476 -0.17498,-0.0716 -0.30586,-0.0716 h -0.25965 v -0.2607 c 0.35455,0.0208 0.62583,0.031 0.8121,0.031 0.20073,0 0.42051,-0.0102 0.66005,-0.031 0.27551,0.33831 0.53551,0.66675 0.77999,0.98672 0.24377,0.31962 0.49636,0.641 0.75917,0.96485 l 1.43123,1.75895 c 0.5154,0.63076 0.88688,1.06927 1.11654,1.3148 v -2.69028 c 0,-1.12572 -0.0212,-1.74096 -0.061,-1.84574 -0.0409,-0.10477 -0.20144,-0.17109 -0.48331,-0.19896 l -0.31362,-0.0296 v -0.26071 c 0.44944,0.0208 0.79798,0.031 1.04669,0.031 0.2607,0 0.59549,-0.0102 1.00577,-0.031 v 0.2607 h -0.32349 c -0.26212,0 -0.41134,0.0868 -0.4505,0.25965 -0.0251,0.115 -0.0381,0.72672 -0.0381,1.83515 v 1.89018 c 0,0.50835 0.0219,1.11584 0.0681,1.82245 -0.37959,-0.0582 -0.59937,-0.1016 -0.6604,-0.12735 -0.0617,-0.0268 -0.11995,-0.0709 -0.17569,-0.13229 -0.30868,-0.34361 -0.63429,-0.72567 -0.97473,-1.14512 z" />
    <path
       id="path5895"
       style="fill:#231f20;fill-opacity:1;fill-rule:nonzero;stroke:none;stroke-width:0.35277775"
       d="m 121.40123,108.11486 v 2.90265 c 0,0.66076 0.0127,1.12148 0.0378,1.38219 0.0201,0.19896 0.0529,0.31961 0.10019,0.36336 0.0459,0.0438 0.18027,0.0744 0.40322,0.0942 l 0.27094,0.0212 v 0.26035 c -0.30586,-0.0205 -0.58279,-0.0307 -0.82938,-0.0307 -0.17039,0 -0.56339,0.0102 -1.17828,0.0307 v -0.26035 h 0.30374 c 0.18133,0 0.30127,-0.0251 0.35737,-0.0759 0.0561,-0.0497 0.0907,-0.14923 0.10477,-0.29775 0.031,-0.30727 0.0459,-0.72496 0.0459,-1.25377 v -2.08456 c 0,-0.39053 -0.003,-0.77894 -0.0116,-1.16205 -0.006,-0.16158 -0.0272,-0.2727 -0.0653,-0.33303 -0.0378,-0.06 -0.0935,-0.1143 -0.16545,-0.16122 -0.073,-0.0476 -0.17498,-0.0716 -0.30586,-0.0716 h -0.25965 v -0.2607 c 0.35454,0.0208 0.62547,0.031 0.81209,0.031 0.20073,0 0.42016,-0.0102 0.66005,-0.031 0.27552,0.33831 0.53622,0.66675 0.77999,0.98672 0.24377,0.31962 0.49742,0.641 0.75918,0.96485 l 1.43016,1.75895 c 0.51647,0.63076 0.88794,1.06927 1.11654,1.3148 v -2.69028 c 0,-1.12572 -0.0201,-1.74096 -0.06,-1.84574 -0.0409,-0.10477 -0.20143,-0.17109 -0.4833,-0.19896 l -0.31468,-0.0296 v -0.26071 c 0.4505,0.0208 0.8001,0.031 1.04775,0.031 0.25964,0 0.59549,-0.0102 1.00577,-0.031 v 0.2607 h -0.3235 c -0.26211,0 -0.41028,0.0868 -0.44979,0.25965 -0.0257,0.115 -0.0388,0.72672 -0.0388,1.83515 v 1.89018 c 0,0.50835 0.0219,1.11584 0.067,1.82245 -0.37747,-0.0582 -0.59831,-0.1016 -0.6604,-0.12735 -0.061,-0.0268 -0.11889,-0.0709 -0.17463,-0.13229 -0.30973,-0.34361 -0.63429,-0.72567 -0.97472,-1.14512 z" />
    <path
       id="path5899"
       style="fill:#231f20;fill-opacity:1;fill-rule:nonzero;stroke:none;stroke-width:0.35277775"
       d="m 130.91106,107.43876 v -0.2607 c 0.57432,0.0208 0.99272,0.0307 1.25448,0.0307 0.27446,0 0.67874,-0.01 1.2125,-0.0307 v 0.2607 h -0.30551 c -0.26282,0 -0.42051,0.0501 -0.47378,0.15028 -0.0536,0.10055 -0.0787,0.55528 -0.0787,1.36384 v 1.63936 c 0,0.59972 0.0318,1.016 0.0981,1.25095 0.0656,0.23354 0.23566,0.4318 0.51012,0.59373 0.27446,0.16157 0.6417,0.242 1.10066,0.242 0.47449,0 0.87278,-0.0861 1.19874,-0.25929 0.22366,-0.11995 0.387,-0.30551 0.49001,-0.5581 0.10372,-0.25223 0.15699,-0.73095 0.15699,-1.43686 v -1.57621 c 0,-0.73096 -0.0339,-1.14829 -0.0995,-1.25271 -0.0653,-0.10443 -0.24519,-0.15699 -0.54081,-0.15699 h -0.21767 v -0.2607 c 0.57927,0.0208 0.94686,0.0307 1.10349,0.0307 0.25471,0 0.57115,-0.01 0.94968,-0.0307 v 0.2607 h -0.28857 c -0.22155,0 -0.36548,0.0593 -0.42933,0.1778 -0.0628,0.11889 -0.0949,0.53516 -0.0949,1.24954 v 1.57021 c 0,0.7172 -0.036,1.20051 -0.10689,1.44957 -0.072,0.25012 -0.20144,0.47589 -0.39123,0.67627 -0.18909,0.20144 -0.44168,0.36019 -0.75742,0.47731 -0.31432,0.11747 -0.68474,0.17604 -1.11125,0.17604 -0.44062,0 -0.82515,-0.0526 -1.15676,-0.15699 -0.33055,-0.10442 -0.57925,-0.23389 -0.74612,-0.387 -0.16651,-0.15381 -0.28751,-0.34149 -0.3623,-0.56338 -0.073,-0.22225 -0.11113,-0.59937 -0.11113,-1.13207 l 0.009,-0.79551 v -1.27635 c 0,-0.7874 -0.0243,-1.22802 -0.0699,-1.32292 -0.0459,-0.0945 -0.19475,-0.14252 -0.44346,-0.14252 z" />
    <path
       id="path5903"
       style="fill:#231f20;fill-opacity:1;fill-rule:nonzero;stroke:none;stroke-width:0.35277775"
       d="m 139.06767,108.11486 v 2.90265 c 0,0.66076 0.013,1.12148 0.0381,1.38219 0.0201,0.19896 0.0529,0.31961 0.0998,0.36336 0.0469,0.0438 0.18063,0.0744 0.40358,0.0942 l 0.27164,0.0212 v 0.26035 c -0.30656,-0.0205 -0.58349,-0.0307 -0.83009,-0.0307 -0.17074,0 -0.56409,0.0102 -1.17757,0.0307 v -0.26035 h 0.30304 c 0.18133,0 0.30127,-0.0251 0.3563,-0.0759 0.0572,-0.0497 0.0928,-0.14923 0.10584,-0.29775 0.0311,-0.30727 0.0469,-0.72496 0.0469,-1.25377 v -2.08456 c 0,-0.39053 -0.005,-0.77894 -0.013,-1.16205 -0.005,-0.16158 -0.0268,-0.2727 -0.0649,-0.33303 -0.0377,-0.06 -0.0928,-0.1143 -0.1644,-0.16122 -0.0741,-0.0476 -0.17533,-0.0716 -0.30586,-0.0716 h -0.2607 v -0.2607 c 0.35454,0.0208 0.62548,0.031 0.81316,0.031 0.19967,0 0.4191,-0.0102 0.65793,-0.031 0.27658,0.33831 0.53622,0.66675 0.78105,0.98672 0.24377,0.31962 0.49741,0.641 0.75882,0.96485 l 1.43052,1.75895 c 0.51646,0.63076 0.88864,1.06927 1.1176,1.3148 v -2.69028 c 0,-1.12572 -0.0212,-1.74096 -0.061,-1.84574 -0.0409,-0.10477 -0.20179,-0.17109 -0.48331,-0.19896 l -0.31362,-0.0296 v -0.26071 c 0.44838,0.0208 0.79798,0.031 1.04775,0.031 0.25929,0 0.59443,-0.0102 1.00577,-0.031 v 0.2607 h -0.32456 c -0.26105,0 -0.41169,0.0868 -0.45085,0.25965 -0.0247,0.115 -0.0367,0.72672 -0.0367,1.83515 v 1.89018 c 0,0.50835 0.0219,1.11584 0.0667,1.82245 -0.37924,-0.0582 -0.59902,-0.1016 -0.66005,-0.12735 -0.061,-0.0268 -0.11994,-0.0709 -0.17462,-0.13229 -0.3108,-0.34361 -0.63536,-0.72567 -0.97508,-1.14512 z" />
    <path
       id="path5907"
       style="fill:#231f20;fill-opacity:1;fill-rule:nonzero;stroke:none;stroke-width:0.35277775"
       d="m 145.58062,112.87842 h 0.26458 c 0.26176,0 0.41769,-0.0628 0.46955,-0.18874 0.0511,-0.12594 0.078,-0.72849 0.078,-1.80763 v -1.4217 c 0,-1.1183 -0.0233,-1.73531 -0.0681,-1.84961 -0.0451,-0.11465 -0.1785,-0.1718 -0.40322,-0.1718 h -0.34078 v -0.26106 c 0.46743,0.0208 0.92886,0.031 1.38536,0.031 0.38029,0 0.72601,-0.0102 1.0354,-0.031 v 0.26106 h -0.32597 c -0.20037,0 -0.32596,0.0236 -0.37712,0.0713 -0.0497,0.0473 -0.0797,0.16792 -0.0878,0.36018 -0.0138,0.29951 -0.0208,0.8322 -0.0208,1.59809 v 1.44709 c 0,1.08761 0.024,1.68698 0.072,1.7974 0.0476,0.11007 0.20074,0.16546 0.46003,0.16546 h 0.27975 v 0.26035 c -0.34643,-0.0205 -0.7239,-0.0307 -1.13242,-0.0307 -0.47625,0 -0.90593,0.0102 -1.28834,0.0307 z" />
    <path
       id="path5911"
       style="fill:#231f20;fill-opacity:1;fill-rule:nonzero;stroke:none;stroke-width:0.35277775"
       d="m 151.59404,113.2155 c -0.12665,-0.37465 -0.25471,-0.72602 -0.38665,-1.05305 l -1.50495,-3.75532 c -0.21696,-0.54433 -0.34149,-0.84208 -0.37888,-0.89288 -0.0356,-0.0504 -0.15664,-0.0755 -0.36125,-0.0755 h -0.17251 v -0.2607 c 0.43533,0.0208 0.80575,0.0307 1.10914,0.0307 0.32279,0 0.70732,-0.01 1.15781,-0.0307 v 0.2607 h -0.41239 c -0.14111,0 -0.23284,0.013 -0.27376,0.0402 -0.043,0.0268 -0.0628,0.0684 -0.0628,0.12488 0,0.0367 0.007,0.078 0.0198,0.12312 l 0.54116,1.45168 1.15182,2.92771 1.11231,-2.79153 c 0.36971,-0.9271 0.55351,-1.46932 0.55351,-1.62702 0,-0.12735 -0.0759,-0.19367 -0.2286,-0.19932 l -0.17075,-0.0123 -0.35878,-0.0374 v -0.2607 c 0.36971,0.0208 0.67416,0.0307 0.91193,0.0307 0.24977,0 0.56339,-0.01 0.94086,-0.0307 v 0.2607 h -0.16757 c -0.13406,0 -0.23107,0.0318 -0.28998,0.0949 -0.061,0.0632 -0.16863,0.28716 -0.32456,0.67204 l -1.41146,3.4537 c -0.26459,0.64805 -0.45226,1.16734 -0.56374,1.5561 z" />
    <path
       id="path5915"
       style="fill:#231f20;fill-opacity:1;fill-rule:nonzero;stroke:none;stroke-width:0.35277775"
       d="m 157.11,110.28889 v 1.03046 l 0.004,0.59372 c 0,0.37007 0.005,0.64065 0.013,0.8121 0.40604,0.0307 0.84173,0.0462 1.30704,0.0462 0.31291,0 0.57538,-0.0141 0.78599,-0.0423 0.13687,-0.0162 0.28151,-0.0529 0.43568,-0.10901 0.0688,-0.24518 0.1397,-0.55245 0.21237,-0.92181 h 0.27587 c -0.0769,0.61101 -0.11606,1.01812 -0.11606,1.22167 l 0.008,0.18803 c -0.32033,0.031 -0.635,0.0462 -0.9458,0.0462 l -0.65716,-0.0138 c -0.72602,-0.0219 -1.25907,-0.0325 -1.59879,-0.0325 -0.32667,0 -0.762,0.0106 -1.30246,0.031 v -0.2607 h 0.13088 c 0.24483,0 0.39829,-0.024 0.46144,-0.0713 0.0639,-0.0473 0.10583,-0.15945 0.12664,-0.33549 0.0212,-0.17639 0.0321,-0.5648 0.0321,-1.16558 V 109.003 c 0,-0.37712 -0.009,-0.68615 -0.0268,-0.9264 -0.0191,-0.24059 -0.0388,-0.38382 -0.06,-0.43003 -0.0208,-0.0462 -0.0497,-0.0822 -0.09,-0.10725 -0.0377,-0.0251 -0.15875,-0.0476 -0.35842,-0.067 l -0.3235,-0.0335 v -0.2607 h 0.45227 l 0.44344,0.0155 c 0.24765,0.0102 0.43533,0.0152 0.56409,0.0152 l 1.6062,-0.0258 0.75988,-0.005 c 0.26,-0.003 0.52246,0.008 0.78599,0.0307 -0.10054,0.3302 -0.15769,0.75883 -0.16792,1.28729 h -0.27552 c 0,-0.30727 -0.0159,-0.56233 -0.0459,-0.76624 -0.33056,-0.12276 -0.73625,-0.18379 -1.21638,-0.18379 -0.38347,0 -0.78529,0.0166 -1.20333,0.0501 0.003,0.26211 0,0.52458 -0.008,0.78598 l -0.009,0.64418 v 0.84878 c 0.2787,0.0205 0.52529,0.0307 0.73837,0.0307 0.66886,0 1.04845,-0.0233 1.13559,-0.0702 0.0896,-0.0466 0.13335,-0.19156 0.13335,-0.43568 v -0.27587 h 0.27587 c -0.019,0.42474 -0.0289,0.76341 -0.0289,1.0167 0,0.26706 0.01,0.58173 0.0289,0.94474 h -0.27585 v -0.24377 c 0,-0.26846 -0.0526,-0.43321 -0.15769,-0.49389 -0.10583,-0.0596 -0.47696,-0.0896 -1.11548,-0.0896 -0.23566,0 -0.48119,0.0102 -0.73414,0.0307" />
    <path
       id="path5919"
       style="fill:#231f20;fill-opacity:1;fill-rule:nonzero;stroke:none;stroke-width:0.35277775"
       d="m 164.43289,110.11631 c 0.27234,0.3944 0.61207,0.85266 1.01565,1.37477 l 0.80398,1.04352 c 0.14217,0.17886 0.23777,0.28116 0.28574,0.30621 0.0459,0.025 0.0945,0.0377 0.1457,0.0377 h 0.10866 v 0.26035 c -0.23142,-0.0205 -0.43533,-0.031 -0.60784,-0.031 -0.16086,0 -0.32773,0.0106 -0.50447,0.031 l -1.48025,-2.00095 c -0.27552,-0.3683 -0.57115,-0.72849 -0.88583,-1.08021 l 0.042,-0.14252 c 0.16051,0.0145 0.28046,0.0212 0.35842,0.0212 0.46461,0 0.82727,-0.11959 1.09079,-0.35983 0.26282,-0.23954 0.39335,-0.56022 0.39335,-0.96168 0,-0.35912 -0.11077,-0.64029 -0.33338,-0.84243 -0.22048,-0.20214 -0.54257,-0.30304 -0.96096,-0.30304 -0.29034,0 -0.58314,0.0512 -0.87772,0.15311 -0.0332,0.44485 -0.0501,0.92075 -0.0501,1.42628 v 2.02635 c 0,0.98672 0.024,1.53388 0.0709,1.64183 0.048,0.10759 0.20215,0.16157 0.46038,0.16157 h 0.32667 v 0.26035 c -0.46461,-0.0205 -0.8509,-0.031 -1.15781,-0.031 -0.24025,0 -0.67769,0.0106 -1.30881,0.031 v -0.26035 h 0.31644 c 0.24059,0 0.38347,-0.0529 0.42827,-0.15734 0.0452,-0.10548 0.0681,-0.65652 0.0681,-1.65488 v -2.01683 c 0,-0.86678 -0.0261,-1.3522 -0.0776,-1.45556 -0.0522,-0.10337 -0.2219,-0.15522 -0.50871,-0.15522 h -0.22648 v -0.26071 c 0.51999,0.0208 0.91651,0.0307 1.19027,0.0307 0.18485,0 0.45049,-0.007 0.79692,-0.0229 0.40252,-0.0152 0.69109,-0.0229 0.86784,-0.0229 0.48224,0 0.84913,0.0515 1.0996,0.15311 0.24977,0.10195 0.44062,0.24976 0.57045,0.44238 0.12876,0.19332 0.19473,0.42404 0.19473,0.6925 0,0.39441 -0.14182,0.74225 -0.42475,1.04493 -0.28222,0.30163 -0.69285,0.50835 -1.23013,0.62054" />
    <path
       id="path5923"
       style="fill:#231f20;fill-opacity:1;fill-rule:nonzero;stroke:none;stroke-width:0.35277775"
       d="m 171.68586,107.47376 c -0.0773,0.28751 -0.11783,0.66922 -0.12312,1.14476 h -0.29175 v -0.33196 c 0,-0.2159 -0.0289,-0.36231 -0.0878,-0.43992 -0.0579,-0.0773 -0.21026,-0.15945 -0.4572,-0.24659 -0.24659,-0.0868 -0.50624,-0.13053 -0.77999,-0.13053 -0.44521,0 -0.79587,0.11078 -1.05058,0.33303 -0.25505,0.22189 -0.3817,0.50658 -0.3817,0.85478 0,0.21942 0.0519,0.40745 0.15593,0.56515 0.10583,0.15769 0.24553,0.27163 0.42333,0.34113 0.17674,0.0702 0.55245,0.13159 1.12677,0.18592 0.57538,0.0561 0.96344,0.13017 1.16629,0.2233 0.20214,0.0928 0.36371,0.2413 0.48542,0.44627 0.11994,0.20496 0.18168,0.44803 0.18168,0.72884 0,0.56409 -0.2346,1.05022 -0.70379,1.45697 -0.46955,0.4071 -1.09503,0.61066 -1.87784,0.61066 -0.2674,0 -0.53728,-0.0279 -0.80998,-0.0836 -0.27163,-0.0554 -0.5461,-0.13723 -0.82267,-0.24589 0.0536,-0.32843 0.0794,-0.75 0.0765,-1.264 h 0.29175 v 0.20461 c 0,0.26529 0.013,0.42933 0.0409,0.49248 0.0279,0.0628 0.0935,0.12982 0.19614,0.20073 0.1524,0.10654 0.33444,0.18803 0.54469,0.24377 0.21096,0.0561 0.43991,0.084 0.68333,0.084 0.52423,0 0.92992,-0.12348 1.21638,-0.37148 0.28575,-0.24694 0.42968,-0.56197 0.42968,-0.94297 0,-0.22261 -0.0501,-0.41099 -0.14675,-0.56551 -0.0981,-0.15381 -0.23495,-0.26917 -0.41064,-0.3436 -0.17568,-0.0759 -0.50024,-0.13229 -0.97472,-0.17145 -0.63147,-0.0497 -1.05869,-0.12559 -1.28517,-0.22507 -0.22613,-0.10055 -0.40287,-0.25859 -0.53058,-0.47414 -0.12841,-0.21519 -0.19262,-0.4833 -0.19262,-0.80327 0,-0.54257 0.1965,-0.98602 0.5902,-1.33138 0.39338,-0.34467 0.93877,-0.51718 1.6341,-0.51718 0.27869,0 0.55809,0.0307 0.83855,0.0921 0.28081,0.0614 0.56127,0.15487 0.84526,0.28011" />
    <path
       id="path5927"
       style="fill:#231f20;fill-opacity:1;fill-rule:nonzero;stroke:none;stroke-width:0.35277775"
       d="m 173.2778,112.87842 h 0.26459 c 0.2614,0 0.41768,-0.0628 0.46919,-0.18874 0.0512,-0.12594 0.0783,-0.72849 0.0783,-1.80763 v -1.4217 c 0,-1.1183 -0.0233,-1.73531 -0.0684,-1.84961 -0.0452,-0.11465 -0.17816,-0.1718 -0.40217,-0.1718 h -0.34149 v -0.26106 c 0.46708,0.0208 0.92887,0.031 1.38607,0.031 0.37958,0 0.72354,-0.0102 1.03469,-0.031 v 0.26106 h -0.32596 c -0.20038,0 -0.32597,0.0236 -0.37712,0.0713 -0.0497,0.0473 -0.0797,0.16792 -0.0878,0.36018 -0.0141,0.29951 -0.0208,0.8322 -0.0208,1.59809 v 1.44709 c 0,1.08761 0.024,1.68698 0.072,1.7974 0.0476,0.11007 0.20038,0.16546 0.46002,0.16546 h 0.27975 v 0.26035 c -0.34642,-0.0205 -0.7239,-0.0307 -1.13276,-0.0307 -0.4759,0 -0.90453,0.0102 -1.288,0.0307 z" />
    <path
       id="path5931"
       style="fill:#231f20;fill-opacity:1;fill-rule:nonzero;stroke:none;stroke-width:0.35277775"
       d="m 179.77561,107.56107 c -0.03,0.4191 -0.0462,0.86042 -0.0462,1.32397 v 2.38831 c 0,0.88865 0.0222,1.37795 0.0663,1.46897 0.0448,0.091 0.20355,0.13617 0.47802,0.13617 h 0.31397 v 0.26035 c -0.49601,-0.0205 -0.91616,-0.0307 -1.26048,-0.0307 -0.34783,0 -0.76517,0.0102 -1.25236,0.0307 v -0.26035 h 0.35137 c 0.1838,0 0.30339,-0.0247 0.36054,-0.0734 0.055,-0.0487 0.09,-0.14429 0.10372,-0.28681 0.0279,-0.32703 0.042,-0.74895 0.042,-1.26577 v -2.39254 c 0,-0.47166 -0.01,-0.90452 -0.0289,-1.29892 h -0.42757 c -0.68897,0 -1.06962,0.0166 -1.13947,0.0483 -0.0699,0.0325 -0.11571,0.15628 -0.13794,0.37324 l -0.0589,0.5595 h -0.26035 l 0.008,-0.49812 c 0,-0.20038 -0.0176,-0.48966 -0.054,-0.86607 1.51307,0.0208 2.40418,0.0307 2.67053,0.0307 l 2.32516,-0.0307 c -0.0529,0.47131 -0.0836,0.92639 -0.0917,1.36419 h -0.2607 l -0.042,-0.54716 c -0.0169,-0.18838 -0.0409,-0.30056 -0.072,-0.33549 -0.03,-0.0349 -0.0998,-0.0561 -0.20567,-0.0646 -0.30974,-0.0222 -0.66005,-0.0339 -1.05269,-0.0339 z" />
    <path
       id="path5935"
       style="fill:#231f20;fill-opacity:1;fill-rule:nonzero;stroke:none;stroke-width:0.35277775"
       d="m 185.36736,110.18108 c 0.17074,-0.25647 0.44167,-0.70238 0.81209,-1.33844 l 0.96273,-1.66476 h 0.64417 v 0.10513 c -0.34149,0.38206 -0.75988,0.95814 -1.25624,1.72826 -0.49389,0.77011 -0.79199,1.28623 -0.89006,1.54799 -0.03,0.0924 -0.0448,0.32914 -0.0448,0.71014 0,0.50659 0.012,0.90875 0.037,1.20579 0.0159,0.16016 0.0438,0.25577 0.0836,0.28787 0.0409,0.0321 0.18097,0.0593 0.42333,0.0818 l 0.31398,0.0335 v 0.26035 c -0.48543,-0.0205 -0.86396,-0.0307 -1.13701,-0.0307 l -1.34584,0.0307 v -0.26035 h 0.35736 c 0.23848,0 0.38276,-0.049 0.42968,-0.14711 0.0466,-0.0981 0.0709,-0.54045 0.0709,-1.32785 0,-0.22931 -0.005,-0.47978 -0.0152,-0.75177 -0.36054,-0.66111 -0.69497,-1.23261 -1.00048,-1.71521 -0.30585,-0.4826 -0.56374,-0.83538 -0.77329,-1.05869 -0.11606,-0.12241 -0.2166,-0.2032 -0.30268,-0.24271 -0.0857,-0.0388 -0.22966,-0.0586 -0.4325,-0.0586 v -0.26035 c 0.115,-0.024 0.33972,-0.0713 0.67627,-0.14287 l 0.33267,-0.0716 c 0.12771,0.048 0.23072,0.1076 0.30974,0.18062 0.1397,0.13159 0.35454,0.43251 0.64311,0.90311 0.22155,0.3616 0.58808,1.02659 1.10138,1.99567" />
  </g>
</svg>
