<?xml version="1.0" encoding="UTF-8" standalone="no"?>
<svg
   xmlns:dc="http://purl.org/dc/elements/1.1/"
   xmlns:cc="http://creativecommons.org/ns#"
   xmlns:rdf="http://www.w3.org/1999/02/22-rdf-syntax-ns#"
   xmlns:svg="http://www.w3.org/2000/svg"
   xmlns="http://www.w3.org/2000/svg"
   version="1.1"
   viewBox="0 0 864.99 669.82"
   data-name="Layer 1"
   id="Layer_1">
  <metadata
     id="metadata1410">
    <rdf:RDF>
      <cc:Work
         rdf:about="">
        <dc:format>image/svg+xml</dc:format>
        <dc:type
           rdf:resource="http://purl.org/dc/dcmitype/StillImage" />
        <dc:title>Disian</dc:title>
      </cc:Work>
    </rdf:RDF>
  </metadata>
  <defs
     id="defs1215">
    <style
       id="style1213">.cls-1,.cls-2,.cls-22,.cls-30,.cls-4{fill:#b5121b;}.cls-1,.cls-31{stroke:#b5121b;}.cls-3{fill:#261c02;}.cls-12,.cls-15,.cls-31,.cls-4{fill-rule:evenodd;}.cls-22,.cls-5{font-size:45.69px;}.cls-11,.cls-14,.cls-15,.cls-16,.cls-17,.cls-18,.cls-19,.cls-5,.cls-8{fill:#fff;}.cls-11,.cls-30,.cls-5{stroke:#231f20;}.cls-14,.cls-16,.cls-17,.cls-19,.cls-5,.cls-8{font-family:TimesNewRomanPS-BoldItalicMT, Times New Roman;font-weight:700;}.cls-14,.cls-16,.cls-17,.cls-18,.cls-19,.cls-22,.cls-26,.cls-27,.cls-5,.cls-8{font-style:italic;}.cls-14,.cls-19,.cls-22,.cls-5,.cls-9{letter-spacing:-0.1em;}.cls-6{letter-spacing:-0.16em;}.cls-7{letter-spacing:-0.1em;}.cls-13,.cls-14,.cls-16,.cls-17,.cls-27,.cls-8{font-size:15.23px;}.cls-21,.cls-8{letter-spacing:-0.16em;}.cls-10{letter-spacing:-0.17em;}.cls-13,.cls-26,.cls-27{fill:#231f20;}.cls-13{font-family:ArialMT, Arial;}.cls-16{letter-spacing:-0.1em;}.cls-17{letter-spacing:-0.1em;}.cls-18,.cls-26{font-size:26.65px;}.cls-18,.cls-22,.cls-26,.cls-27{font-family:TimesNewRomanPS-ItalicMT, Times New Roman;}.cls-18{letter-spacing:-0.1em;}.cls-19{font-size:30.46px;}.cls-20{letter-spacing:-0.12em;}.cls-23{letter-spacing:-0.17em;}.cls-24{letter-spacing:-0.12em;}.cls-25{letter-spacing:-0.1em;}.cls-28{letter-spacing:-0.04em;}.cls-29{letter-spacing:0em;}.cls-31{fill:none;stroke-width:2px;}</style>
  </defs>
  <title
     id="title1217">Disian</title>
  <path
     id="path1221"
     transform="translate(-247.5 -7)"
     d="M513.75,31.11c1.27-2.54,2.72-1.17,5.07,0,5.08,2.54,6.35,3.81,7.62,5.08,3.23,3.24,6.34,6.34,6.27,13.55-.1,9.33-4.86,18.86-14.58,28.6S498.9,93,489.57,93a21.17,21.17,0,0,1-15.85-6.41q-6.24-6.41-6.23-16.44,0-21.52,21.25-38.6a74.72,74.72,0,0,1,48-17.07q22.79,0,34.34,16.83Q588,15.68,605.47,15.68q8.73,0,14.13,5.64T625,36.08a36.14,36.14,0,0,1-.83,7.44c-.56,2.6-1.09,3.91-1.59,3.91a.37.37,0,0,1-.42-.42,2.93,2.93,0,0,1,.14-.9,28,28,0,0,0,1.59-9.89q0-8.71-5.3-14t-14-5.29q-16.76,0-32.47,15.92a48.75,48.75,0,0,1,6,23.4q0,22.71-17.42,38.5T518.1,110.53a143.83,143.83,0,0,1-21.26-2.14,124.44,124.44,0,0,1-22.43,2.14q-18.29,0-18.28-3.67,0-1.8,4.47-3.18A35.39,35.39,0,0,1,471,102.29q7.2,0,28.66,4.71,14.47-3.81,22.78-12,8.1-8,24.86-34.68a138,138,0,0,1,22.22-27.63q-10.11-17-32.75-17-23.4,0-42.92,18.42a77.56,77.56,0,0,0-15.72,20.49q-5.88,11.22-5.89,20.63,0,7.48,4.75,12t12.56,4.5q13.23,0,27.45-14.26c9.49-9.51,13.86-18.66,14.23-27.42.26-6.22-2.27-8.75-6.08-12.56-1.94-1.94-6.35-3.81-8.88-5.08ZM494.42,108q-19.11-2.7-28.53-2.7-8.29,0-8.3,1.59,0,2.43,18.14,2.43A119.87,119.87,0,0,0,494.42,108Zm79.9-56.84a37.81,37.81,0,0,0-3.74-16.62q-9.35,10.67-16.76,26.8-9.75,21.39-20.21,30.81-10.8,9.61-31.64,15.44a90.26,90.26,0,0,0,18.71,1.87q26.54,0,43-25.69Q574.32,67.12,574.32,51.13Z"
     class="cls-2" />
  <path
     id="path1223"
     transform="translate(-247.5 -7)"
     d="M714.38,19.77q0,4.9-12.08,18.9A145.19,145.19,0,0,1,678.79,61q-8.65,19-17.87,27.69t-24.86,12.74c18.36,4.9,54.74,11.55,58.36,12.36A47.74,47.74,0,0,0,704.84,115c4.8,0,24.11.07,29.08-2a4.08,4.08,0,0,0,1.64-.74,3.67,3.67,0,0,1,1.71-.12c0,.88-3.88,1.57-6,2.28-5.25,1.76-27,3.69-35.61,3.69-6.32,0-37.79-4.41-43.65-5.61s-14.79-3.71-26.79-7.55a122,122,0,0,1-23.81,2.29q-21.74,0-21.73-6.65,0-6.22,16.61-6.23,12.87,0,38.41,6.65a39.64,39.64,0,0,0,13.55-8.83q5.92-5.85,14.93-19.42-20.64,18-38.57,18-12.18,0-19.42-7.2t-7.23-19.45q0-18.77,17.76-35.59t37.56-16.83q9.13,0,14.57,4.71t5.44,12.74q0,14.19-13.3,29.36T634.27,73.7a12.72,12.72,0,0,1-8.89-3.32c-2.42-2.22-4.34-8.9-4.65-12.11-.38-4,.28-10.18,1.83-12s1.63-3.15.77.35c-.24,1-1.62,6.81-1,11.31.41,2.88,1.94,9.62,4.14,11.56a11.9,11.9,0,0,0,8.2,2.9q11.43,0,24.34-14.92t12.91-28.14a15.46,15.46,0,0,0-4.88-11.74,17.53,17.53,0,0,0-12.5-4.6q-18.34,0-35.13,18.35t-16.8,38.22q0,9.35,6,14.67t16.45,5.34A39.78,39.78,0,0,0,643,85.12q8.89-4.43,21.91-15.44,10.86-18.2,15.78-25.27A116.66,116.66,0,0,1,692,30.7q12.81-13.42,19.59-13.43C713.44,17.27,714.38,18.1,714.38,19.77ZM622.91,104.3q-24.3-7.68-33-7.68-9.06,0-9.06,4,0,5.4,21.24,5.4A114.37,114.37,0,0,0,622.91,104.3Zm90.3-84.53c0-1-.56-1.53-1.67-1.53q-5.12,0-14,10.46Q689.52,38,679.76,59A174.28,174.28,0,0,0,702.4,36.69Q713.2,24.06,713.21,19.77Z"
     class="cls-2" />
  <path
     id="path1225"
     transform="translate(-247.5 -7)"
     d="M729.69,113.9a24.5,24.5,0,0,0,14.5-7.69q7.44-7.68,8.42-16a19.54,19.54,0,0,1-3.54.28q-8.85,0-14-6T730,68.27q-17.46,1.11-30.5,14.51t-13.05,30.15a20.21,20.21,0,0,0,7.44,16.27q7.44,6.23,19.49,6.23,16.33,0,29.7-11.56t31-41a190.19,190.19,0,0,1,11.42-17.17q-18.62,20.7-31.71,24.23a31.08,31.08,0,0,1-8.89,17.28,24.75,24.75,0,0,1-15.2,7.79M784.85,27.3c-1.52-6.59-17-17.4-28.09-18.92C743.91,6.63,731.91,12,721.14,19.15S705,34.23,705,42.86a14.33,14.33,0,0,0,6.37,12.43q6.38,4.47,17.73,4.47h2.42c5.4-17.68,22.35-32.36,50.69-44.09l1.11-.34c4.85-1.8,8.55-2.79,10.86-2.79q6.71,0,6.71,5.54,0,5.12-7.82,12.74l-1,.83a135.15,135.15,0,0,1-25.79,17.76A109.56,109.56,0,0,1,739.17,59.9a32,32,0,0,0-3.39,7.47q18.29,3.12,18.28,19.87v1.39q13.79-3.73,33.86-27.35a103.57,103.57,0,0,1,9.2-12.46q4.71-5.4,6.44-5.4a.55.55,0,0,1,.56.41q0,1.74-5.37,8.07a94.71,94.71,0,0,1-10.83,11,113.78,113.78,0,0,0-7.21,13.05A157.8,157.8,0,0,0,775,92.23q-4.23,13.58-10.42,21.53T747.21,128a67,67,0,0,1-32.89,8.93q-14.27,0-23.06-7.76t-8.79-20.35a35.31,35.31,0,0,1,6.65-20.39,48.66,48.66,0,0,1,18.17-15.62q11.52-5.94,21.36-6a6.79,6.79,0,0,1,1.45.14,33.85,33.85,0,0,1,1-6.09,28.19,28.19,0,0,1-3,.13q-11.16,0-17.76-4.91A15.51,15.51,0,0,1,703.73,43q0-14.11,16-25.06T756.48,7c11,0,30.61,11.83,31.22,19.17ZM752.88,89q.48-8.25-4.08-13.61t-13.16-6.82a25,25,0,0,0-1,7.06,13,13,0,0,0,4,9.9q4,3.75,10.49,3.74A25.69,25.69,0,0,0,752.88,89Zm30.67-72.22a101.53,101.53,0,0,0-24.64,17.9,102.72,102.72,0,0,0-19,23.92A109.32,109.32,0,0,0,766.35,48,135.24,135.24,0,0,0,791.79,30.4l1-.85c4.53-4.39,6.76-8.19,6.76-11.33s-1.76-4.57-5.26-4.57q-4,0-9.63,2.7Z"
     class="cls-2" />
  <path
     id="path1405"
     transform="translate(-247.5 -7)"
     d="M518.82,32.38c-11.42-6.34-19.54-5.07-43.15-5.07A128.17,128.17,0,0,0,347.5,155.48v.1a102.79,102.79,0,0,0-99,102.7V675.82h760.2v-165a102.8,102.8,0,1,0,0-205.59v-47A102.8,102.8,0,0,0,911,155.61v-.13c0-60.29-11.61-86.08-61.34-115.91-18.35-11-41.07-12.88-64.82-12.88"
     class="cls-31" />
  <rect
     y="206.1946"
     x="24.993284"
     height="432.38382"
     width="679.81732"
     id="rect5162"
     style="fill:none;fill-rule:evenodd;stroke:none;stroke-width:7.55905533;stroke-miterlimit:4;stroke-dasharray:none;stroke-opacity:1" />
</svg>
