<svg xmlns="http://www.w3.org/2000/svg" viewBox="0 0 331 152.21"><defs><style>.cls-1{fill:#fff;}.cls-2{fill:#b5121b;}</style></defs><title>Asset 2</title><g id="Layer_2" data-name="Layer 2"><g id="Layer_1-2" data-name="Layer 1"><path class="cls-1" d="M0,46.21V.21H46a36.17,36.17,0,0,1-3.8,1A78.25,78.25,0,0,0,8,15.63C3.61,18.85,2.6,22.76,5,26.27c2.23,3.2,7.25,4,11.26,1.66,2.3-1.34,4.42-3,6.72-4.31a60.05,60.05,0,0,1,83.22,80.45c-16.89,31-54.76,40.39-85.7,21.31a60.93,60.93,0,0,0-7.27-4.31c-3.65-1.6-6.88-.5-9.27,2.66s-1.47,6.3,1.1,9A41.3,41.3,0,0,0,10,137c12.9,9.75,27.69,13.3,43.58,13.28,37.47,0,69.5-27.86,74.26-64.53,5-38.37-19-73.95-56.14-83.17C68.12,1.7,64.55,1,61,.21H331v152H0v-49c2.9,3,6,5.43,10.47,3.47s4.32-5.84,4.24-9.79c-.09-4.6,0-9.21,0-14.34,6.31,0,12,.14,17.57-.06a6.76,6.76,0,0,1,6.56,3.3,17.48,17.48,0,0,0,19.86,6.78,18,18,0,0,0,.82-34.15,18.11,18.11,0,0,0-20.28,5.72c-1.28,1.54-2.93,3.76-4.54,3.87-6.42.45-12.89.19-20,.19,0-5.81,0-11.08,0-16.35.06-4-.07-7.82-4.52-9.6S2.62,42.9,0,46.21ZM194.5,76.08A75.33,75.33,0,0,0,264.64,151c24.22,1.66,44.41-6.54,61-24,3.49-3.68,3.76-7.18.94-10.17a8.26,8.26,0,0,0-11.27-.43c-1.29,1.06-2.46,2.25-3.72,3.35-11.57,10-24.88,16.25-40.32,16.42-24.48.28-43.3-10.39-54.7-32-11.3-21.41-9.94-43,4.21-62.77,14.39-20.07,34.73-27.67,59-24.67,13.69,1.69,24.55,8.69,33.88,18.59,1.73,1.83,4.78,3.54,7.14,3.44,6.4-.27,8.59-7.12,4.18-12.77A58.56,58.56,0,0,0,303,8.27C252.06-14.9,195.13,19.91,194.5,76.08ZM155.43,136.5v-7.28q0-57,0-114a51.7,51.7,0,0,0-.48-8c-.57-3.65-2.49-6.07-6.61-6.13s-6.07,2.34-6.84,5.93a28.2,28.2,0,0,0-.44,6q0,63.48,0,127a25.9,25.9,0,0,0,.19,5c.72,3.64,2.81,6,6.79,6q25.25,0,50.48,0c4.5,0,6.62-2.83,7-7s-2.65-7.21-7-7.53c-1.65-.13-3.33,0-5,0ZM100.37,75.43c-.5-3.62-.73-7.29-1.53-10.84-6.93-30.65-43.95-46-70-29.06-4.77,3.1-6.4,7.31-4.17,10.76,2.09,3.24,6.65,3.79,11.19,1.33.44-.23.87-.5,1.3-.73C51.62,39,68.37,42.12,78.71,54.52A32.69,32.69,0,0,1,78.92,96c-10.07,12.44-27.05,15.75-41.47,8.11a29.61,29.61,0,0,0-5.85-2.68c-3.18-.85-6.52-.13-7.41,3.22-.61,2.29-.22,5.95,1.28,7.47a31.41,31.41,0,0,0,10.3,6.73C66.37,131.27,100,108.52,100.37,75.43Zm173.32,46.65c8.19-.24,17.67-2.25,25.5-9.06,2.77-2.4,4-5.35,1.83-8.86s-5.4-3.57-8.77-2.38a56.86,56.86,0,0,0-5.77,2.93,32.8,32.8,0,0,1-44-43.89c6.43-12.86,20.09-20.2,34.31-17.7,4.79.85,9.3,3.35,13.89,5.2,3.79,1.54,7.42,1.44,9.84-2,2.6-3.74.78-7.06-2.42-9.51a36.84,36.84,0,0,0-6.86-4c-17-7.82-37.81-4.25-51.51,8.74a46.66,46.66,0,0,0-11.35,51C235.39,110.32,252.55,122,273.69,122.08ZM181.5,107.34v-5.71q0-44,0-87.92a50.5,50.5,0,0,0-.41-7c-.51-3.65-2.71-5.51-6.47-5.59-5.31-.12-7.55,2.49-7.55,9.3q0,51.45,0,102.91a13.8,13.8,0,0,0,.21,3.47c.88,3.33,2.52,5.62,6.58,5.36,4.31-.27,8.66,0,13-.07,5,0,7.26-2.35,7.28-7.24s-2.39-7.22-7.26-7.31C185.22,107.54,183.6,107.44,181.5,107.34Zm114-42.83c-7.65,0-15.3,0-22.95,0-6.1,0-10.29,4.49-10.41,10.89C262,82,266.23,86.7,272.57,86.72q22.71.09,45.41,0c6,0,10.41-4.69,10.56-10.88A10.77,10.77,0,0,0,317.9,64.52C310.42,64.47,302.94,64.51,295.45,64.51Z"/><path class="cls-2" d="M62.19.71a66.42,66.42,0,0,1,9.46,1.86c27.08,7.77,61.78,39.7,56.14,83.17C123,122.41,91,150.23,53.53,150.27c-15.89,0-30.68-3.53-43.58-13.28a41.3,41.3,0,0,1-4.85-4.3C2.53,130,1.54,127,4,123.73s5.62-4.26,9.27-2.66a60.93,60.93,0,0,1,7.27,4.31c30.94,19.08,68.81,9.66,85.7-21.31A60.05,60.05,0,0,0,23,23.62c-2.3,1.34-4.42,3-6.72,4.31-4,2.34-9,1.54-11.26-1.66C2.6,22.76,3.61,18.85,8,15.63c7.68-5.58,15.87-9.18,24.24-12.14A58.92,58.92,0,0,1,42.23.84C43.83.56,45.15.4,45.48.36A60.77,60.77,0,0,1,52,0,76.58,76.58,0,0,1,62.19.71Z"/><path d="M0,46.21c2.62-3.31,5.6-5.8,10.19-4s4.58,5.62,4.52,9.6c-.07,5.27,0,10.54,0,16.35,7.1,0,13.57.26,20-.19,1.61-.11,3.26-2.33,4.54-3.87A18,18,0,0,1,71.35,75.8,17.89,17.89,0,0,1,58.68,92.57a17.48,17.48,0,0,1-19.86-6.78,6.76,6.76,0,0,0-6.56-3.3c-5.62.2-11.26.06-17.57.06,0,5.13-.07,9.74,0,14.34.08,4,.08,7.88-4.24,9.79S2.9,106.16,0,103.21Z"/><path class="cls-2" d="M0,46.21c2.62-3.31,5.6-5.8,10.19-4s4.58,5.62,4.52,9.6c-.07,5.27,0,10.54,0,16.35,7.1,0,13.57.26,20-.19,1.61-.11,3.26-2.33,4.54-3.87A18,18,0,0,1,71.35,75.8,17.89,17.89,0,0,1,58.68,92.57a17.48,17.48,0,0,1-19.86-6.78,6.76,6.76,0,0,0-6.56-3.3c-5.62.2-11.26.06-17.57.06,0,5.13-.07,9.74,0,14.34.08,4,.08,7.88-4.24,9.79S2.9,106.16,0,103.21Z"/><path class="cls-2" d="M194.5,76.08c.63-56.17,57.56-91,108.48-67.81a58.56,58.56,0,0,1,22,17.64c4.41,5.65,2.22,12.5-4.18,12.77-2.36.1-5.41-1.61-7.14-3.44-9.33-9.9-20.19-16.9-33.88-18.59-24.32-3-44.66,4.6-59,24.67-14.15,19.75-15.51,41.36-4.21,62.77,11.4,21.62,30.22,32.29,54.7,32,15.44-.17,28.75-6.37,40.32-16.42,1.26-1.1,2.43-2.29,3.72-3.35a8.26,8.26,0,0,1,11.27.43c2.82,3,2.55,6.49-.94,10.17-16.58,17.51-36.77,25.71-61,24A75.33,75.33,0,0,1,194.5,76.08Z"/><path class="cls-2" d="M155.43,136.5h38.11c1.66,0,3.34-.09,5,0,4.31.32,7.33,3.46,7,7.53s-2.5,6.93-7,7q-25.23.07-50.48,0c-4,0-6.07-2.41-6.79-6a25.9,25.9,0,0,1-.19-5q0-63.48,0-127a28.2,28.2,0,0,1,.44-6c.77-3.59,2.72-6,6.84-5.93s6,2.48,6.61,6.13a51.7,51.7,0,0,1,.48,8q0,57,0,114Z"/><path class="cls-2" d="M100.37,75.43c-.39,33.09-34,55.84-64.6,43.39a31.41,31.41,0,0,1-10.3-6.73c-1.5-1.52-1.89-5.18-1.28-7.47.89-3.35,4.23-4.07,7.41-3.22a29.61,29.61,0,0,1,5.85,2.68c14.42,7.64,31.4,4.33,41.47-8.11a32.69,32.69,0,0,0-.21-41.45C68.37,42.12,51.62,39,37.18,46.89c-.43.23-.86.5-1.3.73-4.54,2.46-9.1,1.91-11.19-1.33-2.23-3.45-.6-7.66,4.17-10.76,26-16.94,63.05-1.59,70,29.06C99.64,68.14,99.87,71.81,100.37,75.43Z"/><path class="cls-2" d="M273.69,122.08c-21.14-.08-38.3-11.76-45.35-29.63a46.66,46.66,0,0,1,11.35-51c13.7-13,34.52-16.56,51.51-8.74a36.84,36.84,0,0,1,6.86,4c3.2,2.45,5,5.77,2.42,9.51-2.42,3.48-6.05,3.58-9.84,2-4.59-1.85-9.1-4.35-13.89-5.2-14.22-2.5-27.88,4.84-34.31,17.7a32.8,32.8,0,0,0,44,43.89,56.86,56.86,0,0,1,5.77-2.93c3.37-1.19,6.61-1.15,8.77,2.38s.94,6.46-1.83,8.86C291.36,119.83,281.88,121.84,273.69,122.08Z"/><path class="cls-2" d="M181.5,107.34c2.1.1,3.72.2,5.34.24,4.87.09,7.27,2.5,7.26,7.31s-2.33,7.21-7.28,7.24c-4.33,0-8.68-.2-13,.07-4.06.26-5.7-2-6.58-5.36a13.8,13.8,0,0,1-.21-3.47q0-51.46,0-102.91c0-6.81,2.24-9.42,7.55-9.3,3.76.08,6,1.94,6.47,5.59a50.5,50.5,0,0,1,.41,7q0,44,0,87.92Z"/><path class="cls-2" d="M295.45,64.51c7.49,0,15,0,22.45,0a10.77,10.77,0,0,1,10.64,11.32C328.39,82,324,86.7,318,86.72q-22.71.09-45.41,0c-6.34,0-10.6-4.73-10.48-11.31.12-6.4,4.31-10.84,10.41-10.89C280.15,64.47,287.8,64.51,295.45,64.51Z"/></g></g></svg>