<svg xmlns="http://www.w3.org/2000/svg" viewBox="0 0 564.13 62.59"><defs><style>.cls-1{fill:#fff;stroke:#231f20;}.cls-2{fill:#b5121b;}</style></defs><title>Asset 3</title><g id="Layer_2" data-name="Layer 2"><g id="Layer_1-2" data-name="Layer 1"><path class="cls-1" d="M8.59,32l.25-.83H23.6l-.29.83a4.6,4.6,0,0,0-3.06.89,7.75,7.75,0,0,0-1.87,3.72L12.85,56a12.51,12.51,0,0,0-.6,2.74A1.46,1.46,0,0,0,12.87,60a5.75,5.75,0,0,0,3,.63l-.23.82H.67l.25-.82a5.19,5.19,0,0,0,3.3-.86A7.88,7.88,0,0,0,6.11,56l5.58-19.37a10.83,10.83,0,0,0,.51-2.7,1.51,1.51,0,0,0-.62-1.29A6.63,6.63,0,0,0,8.59,32Z"/><path class="cls-1" d="M13.84,61.4l.26-.82a5.23,5.23,0,0,0,3.32-.91,6.74,6.74,0,0,0,1.86-3.38l5.49-19.07a11.57,11.57,0,0,0,.53-3.08,1.81,1.81,0,0,0-.62-1.52A7,7,0,0,0,21.49,32l.27-.83H32.11q8.19,0,11.81,3.31t3.63,9.29a13.77,13.77,0,0,1-1.68,7.08,21.11,21.11,0,0,1-7.78,8.07q-4.52,2.51-11.58,2.5ZM32.73,32.93,26.08,55.87a9.21,9.21,0,0,0-.46,2.27,1.21,1.21,0,0,0,.51,1,3.25,3.25,0,0,0,2,.51,8.81,8.81,0,0,0,5.63-2,15.79,15.79,0,0,0,4.83-6.78,23.35,23.35,0,0,0,1.66-8.46,13.46,13.46,0,0,0-1-5.29,6.58,6.58,0,0,0-6.54-4.24Z"/><path class="cls-1" d="M61.18,32.82,57.81,44.56h1a12.44,12.44,0,0,0,5.92-1.07,8.36,8.36,0,0,0,3.16-3.8h.82L65.35,51.47h-.78a11.14,11.14,0,0,0,.2-1.92,2.84,2.84,0,0,0-.72-2,4,4,0,0,0-1.89-1.12A13.71,13.71,0,0,0,59,46.21H57.28l-2.9,10.15a7.79,7.79,0,0,0-.38,2,.94.94,0,0,0,.49.83,5.53,5.53,0,0,0,2.7.45A16.37,16.37,0,0,0,64.37,58a17.73,17.73,0,0,0,6-4.9h.91l-3.14,8.3H42.31l.27-.82a5.24,5.24,0,0,0,3.32-.86,8,8,0,0,0,1.9-3.78l5.68-19.48A9.64,9.64,0,0,0,54,33.89a1.53,1.53,0,0,0-.6-1.3A5.85,5.85,0,0,0,50.61,32l.24-.83H75L73,38.71h-.81a6.53,6.53,0,0,0-.69-3.14A5.46,5.46,0,0,0,69,33.48a13.86,13.86,0,0,0-5-.66Z"/><path class="cls-1" d="M88.33,51.65H79L77.09,54,75,56.54A7.86,7.86,0,0,0,74,58a2.73,2.73,0,0,0-.22,1,1.27,1.27,0,0,0,.57,1,3.33,3.33,0,0,0,1.89.53v.82h-9l.22-.82a5.26,5.26,0,0,0,2.14-.85,23.17,23.17,0,0,0,3.6-3.68L94.63,30.46h1l-1,24.76c0,1.29-.07,2.08-.07,2.34a3.28,3.28,0,0,0,.61,2.21,3,3,0,0,0,2,.81L97,61.4H83.89l.25-.82a11.63,11.63,0,0,0,2.23-.32A2.82,2.82,0,0,0,87.51,59a9.06,9.06,0,0,0,.62-3.45Zm0-1.83L88.91,40,80.5,49.82Z"/><path class="cls-1" d="M141,30.46l-2.1,9.7h-.84c-.12-2.82-.76-4.86-1.91-6.1a6.29,6.29,0,0,0-4.85-1.86,11.08,11.08,0,0,0-6.43,2.26,17.63,17.63,0,0,0-5.48,7,22.6,22.6,0,0,0-2.26,9.91q0,4.47,2,6.82a6,6,0,0,0,4.7,2.35,7.78,7.78,0,0,0,2.77-.65l2.32-8a12.33,12.33,0,0,0,.58-2.64,1.72,1.72,0,0,0-.7-1.39,3.93,3.93,0,0,0-2.42-.57l.22-.85h13l-.2.85a4.3,4.3,0,0,0-1.82.44,2.5,2.5,0,0,0-1,1.08A14.5,14.5,0,0,0,136,51l-2.74,9.31a27.44,27.44,0,0,1-9.86,1.78,14.56,14.56,0,0,1-6.79-1.45,11.49,11.49,0,0,1-4.64-4.59,13.91,13.91,0,0,1-1.84-7.16q0-8.58,7.6-14.13a22.5,22.5,0,0,1,13.52-4.3,20.26,20.26,0,0,1,2.43.13c.55.08,1.52.29,2.9.63a9.56,9.56,0,0,0,1.83.33,2.4,2.4,0,0,0,1.85-1.09Z"/><path class="cls-1" d="M152.6,32.82l-3.37,11.74h1a12.44,12.44,0,0,0,5.92-1.07,8.36,8.36,0,0,0,3.16-3.8h.82l-3.39,11.78H156a11.14,11.14,0,0,0,.2-1.92,2.84,2.84,0,0,0-.72-2,4,4,0,0,0-1.89-1.12,13.71,13.71,0,0,0-3.14-.22H148.7l-2.9,10.15a7.79,7.79,0,0,0-.38,2,.94.94,0,0,0,.49.83,5.53,5.53,0,0,0,2.7.45A16.37,16.37,0,0,0,155.79,58a17.73,17.73,0,0,0,6.05-4.9h.91l-3.14,8.3H133.73l.27-.82a5.24,5.24,0,0,0,3.32-.86,8,8,0,0,0,1.9-3.78l5.68-19.48a9.64,9.64,0,0,0,.47-2.57,1.53,1.53,0,0,0-.6-1.3A5.85,5.85,0,0,0,142,32l.24-.83h24.12l-1.94,7.56h-.81a6.53,6.53,0,0,0-.69-3.14,5.46,5.46,0,0,0-2.49-2.09,13.86,13.86,0,0,0-5-.66Z"/><path class="cls-1" d="M177.52,31.15,187,51.32l4.26-14.64a7.81,7.81,0,0,0,.34-2.14,2.33,2.33,0,0,0-.71-1.78,3.78,3.78,0,0,0-2.42-.78l.25-.83h9.59l-.22.83a5.32,5.32,0,0,0-3,1,7.19,7.19,0,0,0-2,3.68l-7.39,25h-.84L172.66,36l-5.87,20.1a7.24,7.24,0,0,0-.29,1.87,2.52,2.52,0,0,0,.79,1.93,3.72,3.72,0,0,0,2.54.73l-.2.82h-9.86l.2-.82a5.05,5.05,0,0,0,1.8-.23A4.67,4.67,0,0,0,163.6,59a7.56,7.56,0,0,0,1.45-2.93l6.41-22a7.31,7.31,0,0,0-2-1.69,5.9,5.9,0,0,0-2.41-.4l.25-.83Z"/><path class="cls-1" d="M206.93,32.82l-3.37,11.74h1a12.44,12.44,0,0,0,5.92-1.07,8.36,8.36,0,0,0,3.16-3.8h.82L211.1,51.47h-.78a11.14,11.14,0,0,0,.2-1.92,2.84,2.84,0,0,0-.72-2,4,4,0,0,0-1.89-1.12,13.71,13.71,0,0,0-3.14-.22H203l-2.9,10.15a7.79,7.79,0,0,0-.38,2,.94.94,0,0,0,.49.83,5.53,5.53,0,0,0,2.7.45A16.37,16.37,0,0,0,210.12,58a17.73,17.73,0,0,0,6-4.9h.91l-3.14,8.3H188.06l.27-.82a5.24,5.24,0,0,0,3.32-.86,8,8,0,0,0,1.9-3.78l5.68-19.48a9.64,9.64,0,0,0,.47-2.57,1.53,1.53,0,0,0-.6-1.3,5.85,5.85,0,0,0-2.74-.61l.24-.83h24.12l-1.94,7.56H218a6.53,6.53,0,0,0-.69-3.14,5.46,5.46,0,0,0-2.49-2.09,13.86,13.86,0,0,0-5-.66Z"/><path class="cls-1" d="M228.69,46.63,226,55.8a11.12,11.12,0,0,0-.58,2.86,1.62,1.62,0,0,0,.69,1.36,5.58,5.58,0,0,0,2.88.56l-.31.82H214.12l.27-.82a5,5,0,0,0,3.2-.85,8.22,8.22,0,0,0,1.86-3.79l5.62-19.41a10.07,10.07,0,0,0,.47-2.57A1.64,1.64,0,0,0,225,32.6a5.61,5.61,0,0,0-2.7-.62l.22-.83H235q5.39,0,7.56,1.87a6.06,6.06,0,0,1,2.19,4.82,7.69,7.69,0,0,1-2.54,5.6,13.59,13.59,0,0,1-5.69,2.7l2.72,9.17c.73,2.45,1.36,3.93,1.91,4.44a4.13,4.13,0,0,0,2.71.83v.82h-9.42l-4.28-14.77-.74,0C229.28,46.68,229,46.66,228.69,46.63Zm.31-1.34c.52,0,1,.05,1.31.05a7.07,7.07,0,0,0,5.36-2.23,8.19,8.19,0,0,0,2.09-5.85A4.4,4.4,0,0,0,236.65,34a4,4,0,0,0-3-1.12l-1,0Z"/><path class="cls-1" d="M260,51.65h-9.37L248.75,54l-2.15,2.57a7.75,7.75,0,0,0-.91,1.49,2.55,2.55,0,0,0-.22,1,1.28,1.28,0,0,0,.56,1,3.33,3.33,0,0,0,1.89.53v.82h-9l.23-.82a5.32,5.32,0,0,0,2.14-.85,23.68,23.68,0,0,0,3.59-3.68l21.44-25.59h1l-1,24.76c0,1.29-.07,2.08-.07,2.34a3.28,3.28,0,0,0,.62,2.21,3,3,0,0,0,2,.81l-.23.82H255.55l.25-.82a11.79,11.79,0,0,0,2.23-.32,2.86,2.86,0,0,0,1.13-1.3,9,9,0,0,0,.63-3.45Zm0-1.83.58-9.86-8.41,9.86Z"/><path class="cls-1" d="M272.17,31.15h24.34l-2.3,8.14h-.8c0-.43,0-.81,0-1.14a4.75,4.75,0,0,0-1.36-3.6q-1.37-1.27-4.6-1.46l-6.74,22.78a11.25,11.25,0,0,0-.56,2.81,1.61,1.61,0,0,0,.7,1.35,5.5,5.5,0,0,0,2.81.55l-.2.82h-15l.27-.82a5.3,5.3,0,0,0,3.35-.86A8.15,8.15,0,0,0,274,55.87l6.73-22.78a11.92,11.92,0,0,0-5.82,1.52,13,13,0,0,0-4.28,4.68h-.87Z"/><path class="cls-1" d="M294.51,32l.24-.83h14.77l-.29.83a4.58,4.58,0,0,0-3.06.89,7.75,7.75,0,0,0-1.87,3.72L298.77,56a12.51,12.51,0,0,0-.6,2.74,1.46,1.46,0,0,0,.62,1.25,5.75,5.75,0,0,0,3,.63l-.23.82h-15l.24-.82a5.21,5.21,0,0,0,3.31-.86A7.88,7.88,0,0,0,292,56l5.58-19.37a10.83,10.83,0,0,0,.51-2.7,1.53,1.53,0,0,0-.62-1.29A6.63,6.63,0,0,0,294.51,32Z"/><path class="cls-1" d="M317.69,31.15l9.46,20.17,4.26-14.64a8.21,8.21,0,0,0,.34-2.14,2.33,2.33,0,0,0-.71-1.78,3.8,3.8,0,0,0-2.42-.78l.25-.83h9.59l-.22.83a5.38,5.38,0,0,0-3,1,7.27,7.27,0,0,0-2,3.68l-7.39,25H325L312.83,36,307,56.05a7.24,7.24,0,0,0-.29,1.87,2.48,2.48,0,0,0,.79,1.93,3.72,3.72,0,0,0,2.54.73l-.21.82h-9.86l.2-.82a5.08,5.08,0,0,0,1.81-.23A4.67,4.67,0,0,0,303.77,59a7.56,7.56,0,0,0,1.45-2.93l6.4-22a7.15,7.15,0,0,0-2-1.69,5.9,5.9,0,0,0-2.41-.4l.24-.83Z"/><path class="cls-1" d="M364,30.46l-2.09,9.7H361c-.12-2.82-.76-4.86-1.91-6.1a6.29,6.29,0,0,0-4.85-1.86,11.08,11.08,0,0,0-6.42,2.26,17.54,17.54,0,0,0-5.48,7,22.61,22.61,0,0,0-2.27,9.91q0,4.47,2,6.82a6,6,0,0,0,4.71,2.35,7.83,7.83,0,0,0,2.77-.65l2.32-8a13,13,0,0,0,.58-2.64,1.73,1.73,0,0,0-.71-1.39,3.91,3.91,0,0,0-2.42-.57l.23-.85h13.05l-.21.85a4.25,4.25,0,0,0-1.81.44,2.53,2.53,0,0,0-1,1.08,13.75,13.75,0,0,0-.69,2.18l-2.75,9.31a27.44,27.44,0,0,1-9.86,1.78,14.59,14.59,0,0,1-6.79-1.45,11.55,11.55,0,0,1-4.64-4.59A13.91,13.91,0,0,1,333,48.89q0-8.58,7.61-14.13a22.48,22.48,0,0,1,13.52-4.3,20.49,20.49,0,0,1,2.43.13c.55.08,1.51.29,2.9.63a9.31,9.31,0,0,0,1.83.33,2.41,2.41,0,0,0,1.85-1.09Z"/><path class="cls-1" d="M389.25,31.15l2.23,20.79,14.39-20.79h10.6l-.27.83a5.13,5.13,0,0,0-3.32.93,7.52,7.52,0,0,0-1.94,3.71L405.36,56a10.79,10.79,0,0,0-.54,2.72,1.61,1.61,0,0,0,.67,1.33,5,5,0,0,0,2.64.55l-.21.82h-15.1l.27-.82a5.69,5.69,0,0,0,3.59-.93,7.24,7.24,0,0,0,2-3.67l5.69-19.61L387,61.4h-.91l-2.72-25.52L377.61,56a7.56,7.56,0,0,0-.36,2.05,2.3,2.3,0,0,0,.77,1.8,4.25,4.25,0,0,0,2.62.75l-.22.82h-10l.21-.82a5.06,5.06,0,0,0,2.76-.76A7.07,7.07,0,0,0,375.85,56l6.53-22.35a5.09,5.09,0,0,0-1.68-1.34,7.13,7.13,0,0,0-2.51-.31l.27-.83Z"/><path class="cls-1" d="M426.53,51.65h-9.36L415.29,54l-2.14,2.57a7.86,7.86,0,0,0-.92,1.49,2.73,2.73,0,0,0-.22,1,1.27,1.27,0,0,0,.57,1,3.33,3.33,0,0,0,1.89.53v.82h-9l.22-.82a5.37,5.37,0,0,0,2.15-.85,23.68,23.68,0,0,0,3.59-3.68l21.44-25.59h1l-1,24.76c-.05,1.29-.07,2.08-.07,2.34a3.28,3.28,0,0,0,.61,2.21,3,3,0,0,0,2,.81l-.22.82h-13.1l.25-.82a11.63,11.63,0,0,0,2.23-.32,2.82,2.82,0,0,0,1.14-1.3,9.06,9.06,0,0,0,.62-3.45Zm0-1.83.58-9.86-8.41,9.86Z"/><path class="cls-1" d="M466.85,30.46l-2.23,9.61h-.87c-.1-2.61-.75-4.57-1.93-5.85a6,6,0,0,0-4.63-1.93,9.43,9.43,0,0,0-6.13,2.63,20.06,20.06,0,0,0-5.18,8,23.65,23.65,0,0,0-1.72,8.68,8.28,8.28,0,0,0,1.89,5.86,6.73,6.73,0,0,0,5.16,2,10.21,10.21,0,0,0,4.84-1.16,15.85,15.85,0,0,0,4.42-3.77h1.07A18.64,18.64,0,0,1,456,60.42a13.36,13.36,0,0,1-6.9,1.67,11.92,11.92,0,0,1-8.8-3.31,11.63,11.63,0,0,1-3.34-8.65,18.58,18.58,0,0,1,2.66-9.53,19.79,19.79,0,0,1,7.64-7.34,20.07,20.07,0,0,1,9.91-2.8,17.71,17.71,0,0,1,4.67.8,8.63,8.63,0,0,0,2,.4,3.19,3.19,0,0,0,2.25-1.2Z"/><path class="cls-1" d="M473.41,45.07h11.07l2.45-8.45a10.59,10.59,0,0,0,.49-2.66,1.62,1.62,0,0,0-.6-1.36,6.26,6.26,0,0,0-2.9-.62l.25-.83h15L499,32a5.19,5.19,0,0,0-3.35.93,7.6,7.6,0,0,0-1.94,3.71L488.05,56a11.26,11.26,0,0,0-.56,2.72,1.43,1.43,0,0,0,.6,1.25,5.18,5.18,0,0,0,2.84.63l-.23.82H476l.33-.82a4.91,4.91,0,0,0,3.16-.84A7.88,7.88,0,0,0,481.31,56l2.61-9h-11l-2.59,9a10.65,10.65,0,0,0-.55,2.74,1.54,1.54,0,0,0,.68,1.31,5.14,5.14,0,0,0,2.68.55l-.22.82H458.36l.24-.82a4.83,4.83,0,0,0,3.14-.84A8.19,8.19,0,0,0,463.58,56l5.62-19.36a10.4,10.4,0,0,0,.49-2.64,1.66,1.66,0,0,0-.59-1.38,6,6,0,0,0-2.82-.62l.24-.83h14.79L481,32a4.68,4.68,0,0,0-3.1.88A8.1,8.1,0,0,0,476,36.62Z"/><path class="cls-1" d="M497.11,32l.25-.83h14.76l-.29.83a4.6,4.6,0,0,0-3.06.89,7.75,7.75,0,0,0-1.87,3.72L501.37,56a12.51,12.51,0,0,0-.6,2.74,1.46,1.46,0,0,0,.62,1.25,5.75,5.75,0,0,0,3,.63l-.23.82h-15l.25-.82a5.19,5.19,0,0,0,3.3-.86A7.88,7.88,0,0,0,494.63,56l5.58-19.37a10.83,10.83,0,0,0,.51-2.7,1.51,1.51,0,0,0-.62-1.29A6.63,6.63,0,0,0,497.11,32Z"/><path class="cls-1" d="M520.29,31.15l9.46,20.17L534,36.68a7.81,7.81,0,0,0,.34-2.14,2.33,2.33,0,0,0-.71-1.78,3.78,3.78,0,0,0-2.42-.78l.25-.83h9.59l-.22.83a5.32,5.32,0,0,0-3,1,7.19,7.19,0,0,0-2,3.68l-7.39,25h-.84L515.43,36l-5.87,20.1a7.24,7.24,0,0,0-.29,1.87,2.52,2.52,0,0,0,.79,1.93,3.72,3.72,0,0,0,2.54.73l-.2.82h-9.86l.2-.82a5.05,5.05,0,0,0,1.8-.23A4.67,4.67,0,0,0,506.37,59a7.56,7.56,0,0,0,1.45-2.93l6.4-22a7,7,0,0,0-2-1.69,5.9,5.9,0,0,0-2.41-.4l.25-.83Z"/><path class="cls-1" d="M549.7,32.82l-3.37,11.74h1a12.44,12.44,0,0,0,5.92-1.07,8.36,8.36,0,0,0,3.16-3.8h.82l-3.39,11.78h-.78a12.25,12.25,0,0,0,.2-1.92,2.84,2.84,0,0,0-.72-2,4.09,4.09,0,0,0-1.89-1.12,13.77,13.77,0,0,0-3.14-.22H545.8l-2.9,10.15a7.79,7.79,0,0,0-.38,2,.94.94,0,0,0,.49.83,5.53,5.53,0,0,0,2.7.45A16.37,16.37,0,0,0,552.89,58a17.83,17.83,0,0,0,6.05-4.9h.91l-3.15,8.3H530.83l.26-.82a5.25,5.25,0,0,0,3.33-.86,7.93,7.93,0,0,0,1.89-3.78L542,36.46a9.64,9.64,0,0,0,.47-2.57,1.53,1.53,0,0,0-.6-1.3,5.85,5.85,0,0,0-2.74-.61l.24-.83h24.12l-1.94,7.56h-.81a6.53,6.53,0,0,0-.69-3.14,5.46,5.46,0,0,0-2.49-2.09,13.86,13.86,0,0,0-5-.66Z"/><path class="cls-2" d="M49.52,1.52l.26-.83h9.66q6.14,0,9.09,1.41a10.6,10.6,0,0,1,4.72,4.43A12.58,12.58,0,0,1,75,13a16.69,16.69,0,0,1-1,5.76,17,17,0,0,1-2.3,4.49A21.1,21.1,0,0,1,67.77,27,18.65,18.65,0,0,1,62,30a26.22,26.22,0,0,1-7.74,1H41.46l.29-.82a7.17,7.17,0,0,0,2.37-.32,2.82,2.82,0,0,0,1.31-1A14.1,14.1,0,0,0,46.88,25l5.36-18.3a13.33,13.33,0,0,0,.62-3.39A1.59,1.59,0,0,0,52.28,2,3.76,3.76,0,0,0,50,1.52Zm7.92.84L50.88,25a17.27,17.27,0,0,0-.74,3.14,1.16,1.16,0,0,0,.24.69,1,1,0,0,0,.63.45,6.43,6.43,0,0,0,1.88.2,27.84,27.84,0,0,0,6.5-.72,13.45,13.45,0,0,0,4.92-2.16,14.41,14.41,0,0,0,4.35-5.71,20.11,20.11,0,0,0,1.63-8.27c0-3.5-.84-6.1-2.5-7.8s-4.1-2.55-7.3-2.55C59.7,2.28,58.69,2.31,57.44,2.36Z"/><path class="cls-2" d="M82.52,30.12l-.25.82H69.82l.31-.82a7.65,7.65,0,0,0,2.48-.32,3.06,3.06,0,0,0,1.45-1A13.72,13.72,0,0,0,75.58,25L80.84,6.76a13.28,13.28,0,0,0,.67-3.44,1.67,1.67,0,0,0-.29-1,1.77,1.77,0,0,0-.88-.61A8.16,8.16,0,0,0,78,1.52L78.3.69H90l-.25.83a4.93,4.93,0,0,0-2.12.31A3.31,3.31,0,0,0,86.1,3.1a17.24,17.24,0,0,0-1.35,3.66L79.5,25a16.88,16.88,0,0,0-.71,3.21,1.57,1.57,0,0,0,.28,1,1.71,1.71,0,0,0,.89.6A12.28,12.28,0,0,0,82.52,30.12Z"/><path class="cls-2" d="M114.78,0l-2.26,9.53h-.84a24.32,24.32,0,0,0,.2-2.48A5,5,0,0,0,110,3.18a7.84,7.84,0,0,0-5.32-1.69Q97.69,1.49,93.29,8a20.07,20.07,0,0,0-3.5,11.53A12.34,12.34,0,0,0,92,26.86q2.16,3.08,6.67,3.08a10.85,10.85,0,0,0,2.1-.2,25.1,25.1,0,0,0,3-.9l2.21-7.78a9.45,9.45,0,0,0,.47-2.57,1.41,1.41,0,0,0-.58-1.22,5.45,5.45,0,0,0-3-.65h-.63l.25-.87H115l-.22.87a6.23,6.23,0,0,0-2.5.4,3.26,3.26,0,0,0-1.34,1.3,19.85,19.85,0,0,0-1.23,3.5l-2.23,7.65a30.42,30.42,0,0,1-4.93,1.75,17.39,17.39,0,0,1-4,.44,14.78,14.78,0,0,1-7.74-1.8,11.05,11.05,0,0,1-4.38-4.75,13.44,13.44,0,0,1-1.42-5.88,17.4,17.4,0,0,1,1.65-7.46,20.61,20.61,0,0,1,4.12-6,20,20,0,0,1,5.36-3.85A19,19,0,0,1,104.58,0a15.36,15.36,0,0,1,5.85,1.07,4.75,4.75,0,0,0,1.54.42,1.73,1.73,0,0,0,1-.25,4.76,4.76,0,0,0,1-1.24Z"/><path class="cls-2" d="M121.59,30.12l-.25.82H108.89l.32-.82a7.63,7.63,0,0,0,2.47-.32,3,3,0,0,0,1.45-1A13.72,13.72,0,0,0,114.65,25l5.26-18.25a13.28,13.28,0,0,0,.67-3.44,1.6,1.6,0,0,0-.29-1,1.72,1.72,0,0,0-.88-.61,8.16,8.16,0,0,0-2.31-.21l.27-.83h11.69l-.25.83a4.85,4.85,0,0,0-2.11.31,3.39,3.39,0,0,0-1.53,1.27,17.24,17.24,0,0,0-1.35,3.66L118.57,25a16.88,16.88,0,0,0-.71,3.21,1.57,1.57,0,0,0,.28,1,1.76,1.76,0,0,0,.89.6A12.28,12.28,0,0,0,121.59,30.12Z"/><path class="cls-2" d="M127.66.69h23l-2.48,8h-.85a13.73,13.73,0,0,0,.43-3.14,3,3,0,0,0-1-2.46c-.5-.41-1.8-.62-3.9-.62h-2.39l-6,20.83a26.17,26.17,0,0,0-1.13,4.85,1.66,1.66,0,0,0,.71,1.39,4.32,4.32,0,0,0,2.52.55h1l-.27.82H124.16l.24-.82H125a5.32,5.32,0,0,0,2.68-.56,3.33,3.33,0,0,0,1.17-1.37A27,27,0,0,0,130.29,24L136.56,2.5h-1.81a10.92,10.92,0,0,0-4.2.67A6.16,6.16,0,0,0,128,5.11a10.41,10.41,0,0,0-1.61,3.61h-.82Z"/><path class="cls-2" d="M162,0l-2.3,25.16c-.12,1.18-.17,1.95-.17,2.32a2.33,2.33,0,0,0,.33,1.36,2.45,2.45,0,0,0,1.15,1,6.67,6.67,0,0,0,2.44.32l-.24.82H151.24l.25-.82H152a4.09,4.09,0,0,0,2.37-.63,2.72,2.72,0,0,0,1-1.4,17.73,17.73,0,0,0,.47-3.26L156.2,21h-8.66l-3.08,4.17a11.75,11.75,0,0,0-1.31,2,2.9,2.9,0,0,0-.27,1.15,1.57,1.57,0,0,0,.58,1.23,3,3,0,0,0,1.92.56l-.25.82h-8.94l.24-.82A4.81,4.81,0,0,0,139.34,29a27.45,27.45,0,0,0,3.76-4.43L161.17,0Zm-4.42,7.43-8.76,11.93h7.6Z"/><path class="cls-2" d="M182.7,30.94H160.28l.31-.82a8.17,8.17,0,0,0,2.39-.29,3.05,3.05,0,0,0,1.38-1,14.24,14.24,0,0,0,1.48-3.71l5.33-18.4a13.24,13.24,0,0,0,.67-3.35A1.55,1.55,0,0,0,171.22,2a4,4,0,0,0-2.3-.47l-.61,0,.27-.83h12.34l-.18.83a7.67,7.67,0,0,0-3,.4,3.42,3.42,0,0,0-1.45,1.31A21.14,21.14,0,0,0,175,7l-5.24,18.09a12,12,0,0,0-.61,2.86,1.35,1.35,0,0,0,.61,1,2.88,2.88,0,0,0,1.71.33h2.93a13.22,13.22,0,0,0,5.06-.8A7.93,7.93,0,0,0,182,26.68a23.76,23.76,0,0,0,2.21-3.32l.58-1h.83Z"/><path class="cls-2" d="M216.42,30.94H194l.32-.82a8.09,8.09,0,0,0,2.38-.29,3.14,3.14,0,0,0,1.39-1,14.68,14.68,0,0,0,1.47-3.71l5.33-18.4a13.24,13.24,0,0,0,.67-3.35A1.55,1.55,0,0,0,205,2a4.06,4.06,0,0,0-2.31-.47l-.6,0,.26-.83h12.34l-.18.83a7.61,7.61,0,0,0-2.94.4,3.36,3.36,0,0,0-1.45,1.31A20,20,0,0,0,208.75,7l-5.24,18.09a12.34,12.34,0,0,0-.6,2.86,1.37,1.37,0,0,0,.6,1,2.89,2.89,0,0,0,1.72.33h2.92a13.22,13.22,0,0,0,5.06-.8,7.93,7.93,0,0,0,2.54-1.81A23.76,23.76,0,0,0,218,23.36l.58-1h.83Z"/><path class="cls-2" d="M231.11,2.32l-3.46,12h2.83a8,8,0,0,0,4.4-.93,7.24,7.24,0,0,0,2.34-3.42h.83l-3.11,11h-.89a8.6,8.6,0,0,0,.4-2.36,2.72,2.72,0,0,0-.39-1.54,2.29,2.29,0,0,0-1.07-.86,9,9,0,0,0-2.86-.28h-2.88l-2.92,10a8.31,8.31,0,0,0-.43,2.21,1.29,1.29,0,0,0,.56,1,3.5,3.5,0,0,0,1.9.31H229a13.75,13.75,0,0,0,7-1.53,13.43,13.43,0,0,0,4.7-5.36h.83l-2.86,8.41H215.29l.29-.82a7,7,0,0,0,2.34-.32,2.87,2.87,0,0,0,1.3-1,16.32,16.32,0,0,0,1.42-3.84L226,6.69a13.38,13.38,0,0,0,.63-3.37A1.62,1.62,0,0,0,226,2a3.92,3.92,0,0,0-2.31-.48h-.47l.27-.83h21.73L243.33,8h-.82a12.36,12.36,0,0,0,.15-1.72,3.3,3.3,0,0,0-.58-2,4.67,4.67,0,0,0-2.21-1.56,18,18,0,0,0-4.93-.4Z"/><path class="cls-2" d="M263.19,0l-2.3,25.16c-.12,1.18-.17,1.95-.17,2.32a2.33,2.33,0,0,0,.33,1.36,2.45,2.45,0,0,0,1.15,1,6.67,6.67,0,0,0,2.44.32l-.24.82H252.48l.25-.82h.51a4.09,4.09,0,0,0,2.37-.63,2.72,2.72,0,0,0,1-1.4,17.73,17.73,0,0,0,.47-3.26l.36-3.84h-8.66l-3.08,4.17a11.75,11.75,0,0,0-1.31,2,2.9,2.9,0,0,0-.27,1.15,1.57,1.57,0,0,0,.58,1.23,3,3,0,0,0,1.92.56l-.25.82h-8.94l.24-.82A4.81,4.81,0,0,0,240.58,29a27.45,27.45,0,0,0,3.76-4.43L262.41,0Zm-4.42,7.43L250,19.36h7.6Z"/><path class="cls-2" d="M282,30.94l-4.84-14.7a16.79,16.79,0,0,1-3.48-.33l-2.61,9.14a11.36,11.36,0,0,0-.51,3,1.82,1.82,0,0,0,.64,1.48,6.18,6.18,0,0,0,2.68.58l-.2.82H262l.24-.82a6.83,6.83,0,0,0,2.23-.34,2.81,2.81,0,0,0,1.34-1,14.22,14.22,0,0,0,1.5-3.71l5.28-18.27A10.82,10.82,0,0,0,273.08,4a2.19,2.19,0,0,0-.84-1.74,3.48,3.48,0,0,0-2.4-.69l.27-.83H280q4.95,0,7.14,1.88A6.16,6.16,0,0,1,289.3,7.5a7.68,7.68,0,0,1-2.25,5.34,10.45,10.45,0,0,1-6.14,3.07l2.94,8.85A10.6,10.6,0,0,0,286,29a5.45,5.45,0,0,0,3.45,1.12l-.24.82ZM274,14.63a17.53,17.53,0,0,0,2.54.2,8.43,8.43,0,0,0,6.07-2.13,7,7,0,0,0,2.23-5.29,5,5,0,0,0-1.39-3.8A5.94,5.94,0,0,0,279.3,2.3a9.55,9.55,0,0,0-1.69.18Z"/><path class="cls-2" d="M299.43.69l9.35,23.72,5.06-17.72a13.1,13.1,0,0,0,.62-3.39A1.55,1.55,0,0,0,313.88,2a3.58,3.58,0,0,0-2.16-.47l-.56,0,.25-.83h9.72l-.26.83a5.49,5.49,0,0,0-2.25.31A3.65,3.65,0,0,0,317.05,3a13.76,13.76,0,0,0-1.45,3.66l-7.11,24.94h-.81L297.62,6.11,292.25,25a12.92,12.92,0,0,0-.61,3.28,1.56,1.56,0,0,0,.55,1.29,5.6,5.6,0,0,0,2.6.59l-.22.82h-9.51l.32-.82a7.19,7.19,0,0,0,2.38-.32,3,3,0,0,0,1.36-1,15.46,15.46,0,0,0,1.45-3.8l6-21a5,5,0,0,0-1.86-1.84,7.55,7.55,0,0,0-3.09-.57l.25-.83Z"/><path class="cls-2" d="M323.5,30.12l-.24.82H310.81l.31-.82a7.65,7.65,0,0,0,2.48-.32,3.06,3.06,0,0,0,1.45-1A13.72,13.72,0,0,0,316.57,25l5.26-18.25a13.28,13.28,0,0,0,.67-3.44,1.67,1.67,0,0,0-.29-1,1.77,1.77,0,0,0-.88-.61A8.16,8.16,0,0,0,319,1.52l.27-.83H331l-.25.83a4.9,4.9,0,0,0-2.12.31,3.31,3.31,0,0,0-1.52,1.27,17.24,17.24,0,0,0-1.35,3.66L320.49,25a16.88,16.88,0,0,0-.71,3.21,1.57,1.57,0,0,0,.28,1,1.71,1.71,0,0,0,.89.6A12.26,12.26,0,0,0,323.5,30.12Z"/><path class="cls-2" d="M336,.69l9.35,23.72,5.06-17.72A13.2,13.2,0,0,0,351,3.3,1.58,1.58,0,0,0,350.44,2a3.64,3.64,0,0,0-2.17-.47l-.56,0L348,.69h9.73l-.27.83a5.49,5.49,0,0,0-2.25.31A3.71,3.71,0,0,0,353.6,3a13.76,13.76,0,0,0-1.45,3.66L345,31.63h-.81L334.17,6.11,328.8,25a12.92,12.92,0,0,0-.61,3.28,1.56,1.56,0,0,0,.55,1.29,5.64,5.64,0,0,0,2.6.59l-.22.82h-9.51l.32-.82a7.19,7.19,0,0,0,2.38-.32,3,3,0,0,0,1.36-1,15.46,15.46,0,0,0,1.45-3.8l6-21a5,5,0,0,0-1.86-1.84,7.55,7.55,0,0,0-3.09-.57l.25-.83Z"/><path class="cls-2" d="M381.67,0l-2.25,9.53h-.85a21.69,21.69,0,0,0,.2-2.48,5,5,0,0,0-1.93-3.87,7.82,7.82,0,0,0-5.32-1.69q-6.93,0-11.33,6.52a20,20,0,0,0-3.5,11.53,12.41,12.41,0,0,0,2.16,7.32c1.44,2.05,3.67,3.08,6.67,3.08a11,11,0,0,0,2.11-.2,26.25,26.25,0,0,0,3-.9l2.21-7.78a9.85,9.85,0,0,0,.47-2.57,1.43,1.43,0,0,0-.58-1.22,5.51,5.51,0,0,0-3-.65h-.62l.24-.87h12.58l-.22.87a6.26,6.26,0,0,0-2.5.4,3.24,3.24,0,0,0-1.33,1.3,18.23,18.23,0,0,0-1.23,3.5l-2.23,7.65a30.76,30.76,0,0,1-4.93,1.75,17.45,17.45,0,0,1-3.95.44,14.76,14.76,0,0,1-7.74-1.8,11.14,11.14,0,0,1-4.39-4.75A13.56,13.56,0,0,1,352,19.23a17.4,17.4,0,0,1,1.65-7.46,20.59,20.59,0,0,1,4.11-6,20.23,20.23,0,0,1,5.37-3.85A19,19,0,0,1,371.48,0a15.34,15.34,0,0,1,5.84,1.07,4.75,4.75,0,0,0,1.54.42,1.7,1.7,0,0,0,.95-.25,4.38,4.38,0,0,0,1-1.24Z"/><path class="cls-2" d="M423.8,0l-2.25,9.53h-.85a21.69,21.69,0,0,0,.2-2.48A5,5,0,0,0,419,3.18a7.82,7.82,0,0,0-5.32-1.69q-6.93,0-11.33,6.52a20.07,20.07,0,0,0-3.5,11.53A12.41,12.41,0,0,0,401,26.86c1.44,2.05,3.67,3.08,6.67,3.08a10.88,10.88,0,0,0,2.11-.2,26.25,26.25,0,0,0,3-.9L415,21.06a9.85,9.85,0,0,0,.47-2.57,1.43,1.43,0,0,0-.58-1.22,5.51,5.51,0,0,0-3-.65h-.62l.24-.87H424l-.23.87a6.3,6.3,0,0,0-2.5.4,3.24,3.24,0,0,0-1.33,1.3,18.23,18.23,0,0,0-1.23,3.5l-2.23,7.65a30.76,30.76,0,0,1-4.93,1.75,17.45,17.45,0,0,1-3.95.44,14.78,14.78,0,0,1-7.74-1.8,11.14,11.14,0,0,1-4.39-4.75,13.56,13.56,0,0,1-1.41-5.88,17.4,17.4,0,0,1,1.65-7.46,20.42,20.42,0,0,1,4.12-6,20,20,0,0,1,5.36-3.85A19,19,0,0,1,413.61,0a15.34,15.34,0,0,1,5.84,1.07,4.81,4.81,0,0,0,1.54.42,1.7,1.7,0,0,0,.95-.25A4.54,4.54,0,0,0,423,0Z"/><path class="cls-2" d="M442.88,0l-2.3,25.16c-.12,1.18-.17,1.95-.17,2.32a2.33,2.33,0,0,0,.33,1.36,2.45,2.45,0,0,0,1.15,1,6.67,6.67,0,0,0,2.44.32l-.24.82H432.17l.25-.82h.51a4.09,4.09,0,0,0,2.37-.63,2.72,2.72,0,0,0,1-1.4,17.73,17.73,0,0,0,.47-3.26l.36-3.84h-8.66l-3.08,4.17a11.75,11.75,0,0,0-1.31,2,2.9,2.9,0,0,0-.27,1.15,1.57,1.57,0,0,0,.58,1.23,3.07,3.07,0,0,0,1.92.56l-.25.82h-8.94l.24-.82A4.81,4.81,0,0,0,420.27,29,27.45,27.45,0,0,0,424,24.58L442.1,0Zm-4.42,7.43L429.7,19.36h7.6Z"/><path class="cls-2" d="M457.16.69,460,25.05,477.51.69h7.38v.83a16.58,16.58,0,0,0-2.83.31A3.08,3.08,0,0,0,480.71,3a12.61,12.61,0,0,0-1.33,3.35l-5.6,19.18a10.34,10.34,0,0,0-.49,2.63,1.53,1.53,0,0,0,.61,1.32,4.4,4.4,0,0,0,2.67.65h.54l-.2.82H464.17l.22-.82h.6a5.56,5.56,0,0,0,2.59-.49,3.17,3.17,0,0,0,1.24-1.35,27.77,27.77,0,0,0,1.53-4.41l5-17.53L457.7,30.94h-.89L454,6.34l-5.39,18.71a14.21,14.21,0,0,0-.7,3.21,1.45,1.45,0,0,0,.61,1.27,6.85,6.85,0,0,0,2.92.59l-.25.82h-10l.25-.82h.6A4,4,0,0,0,445.23,29a10.13,10.13,0,0,0,1.49-3.48L453.3,3a4.26,4.26,0,0,0-1.4-1,9.8,9.8,0,0,0-2.48-.42l.23-.83Z"/><path class="cls-2" d="M491,2.32l-3.45,12h2.83a8,8,0,0,0,4.4-.93,7.32,7.32,0,0,0,2.34-3.42h.82l-3.1,11h-.89a8.6,8.6,0,0,0,.4-2.36,2.72,2.72,0,0,0-.39-1.54,2.34,2.34,0,0,0-1.07-.86,9.08,9.08,0,0,0-2.87-.28h-2.87l-2.93,10a8.63,8.63,0,0,0-.42,2.21,1.29,1.29,0,0,0,.56,1,3.48,3.48,0,0,0,1.89.31h2.68a13.77,13.77,0,0,0,7-1.53,13.5,13.5,0,0,0,4.7-5.36h.82l-2.85,8.41H475.15l.29-.82a7,7,0,0,0,2.34-.32,2.87,2.87,0,0,0,1.3-1,16.32,16.32,0,0,0,1.42-3.84l5.31-18.25a13.38,13.38,0,0,0,.63-3.37A1.62,1.62,0,0,0,485.85,2a3.92,3.92,0,0,0-2.31-.48h-.47l.27-.83h21.72L503.19,8h-.82a12.36,12.36,0,0,0,.15-1.72,3.3,3.3,0,0,0-.58-2,4.67,4.67,0,0,0-2.21-1.56,18,18,0,0,0-4.93-.4Z"/><path class="cls-2" d="M499.83,31.63l2.49-11.22h.76q-.15,1.64-.15,2.7a6.68,6.68,0,0,0,1.95,5A7,7,0,0,0,510,30a5.5,5.5,0,0,0,4.44-1.79,6.24,6.24,0,0,0,1.51-4.14,5.66,5.66,0,0,0-.69-2.77,42,42,0,0,0-5.6-6.51,19.33,19.33,0,0,1-2.83-3.32,7.54,7.54,0,0,1-1-3.8,7.23,7.23,0,0,1,2.37-5.42A8.43,8.43,0,0,1,514.21,0a10.57,10.57,0,0,1,2.37.25,14.75,14.75,0,0,1,2.52.89l1.43.56a3.69,3.69,0,0,0,.69.06,1.92,1.92,0,0,0,1.12-.33A4.85,4.85,0,0,0,523.43,0h.85L522,10h-.76q.09-1.33.09-2.16a5.86,5.86,0,0,0-1.79-4.42,6.48,6.48,0,0,0-4.7-1.72A5.3,5.3,0,0,0,511,3.1a4.22,4.22,0,0,0-1.44,3.15,5.3,5.3,0,0,0,.92,3,33.16,33.16,0,0,0,4.26,4.62,24.84,24.84,0,0,1,4.32,5,7.91,7.91,0,0,1,1,3.83,9,9,0,0,1-1.22,4.45,8.32,8.32,0,0,1-3.49,3.33,10.56,10.56,0,0,1-5,1.18,12.33,12.33,0,0,1-2.5-.24,30.24,30.24,0,0,1-3.7-1.21,4.3,4.3,0,0,0-1.45-.33c-.88,0-1.57.59-2.06,1.78Z"/></g></g></svg>