<svg xmlns="http://www.w3.org/2000/svg" viewBox="0 0 344.01 64.51"><defs><style>.cls-1{fill:#261c02;}.cls-2{fill:#b5121b;fill-rule:evenodd;}</style></defs><title>Asset 7</title><g id="Layer_2" data-name="Layer 2"><g id="Layer_1-2" data-name="Layer 1"><path class="cls-1" d="M66.49,34.54c-.08,1.18-.13,2.43-.13,3.75v6.77a20.79,20.79,0,0,0,.19,4.16c.12.26.58.39,1.35.39h.89v.74q-2.1-.09-3.57-.09c-1,0-2.17,0-3.55.09v-.74h1a1.67,1.67,0,0,0,1-.21,1.28,1.28,0,0,0,.3-.81c.07-.93.11-2.13.11-3.59V38.22c0-1.34,0-2.57-.08-3.68H62.81a18.12,18.12,0,0,0-3.23.13c-.2.09-.33.45-.39,1.06L59,37.32h-.74l0-1.42c0-.56-.05-1.38-.16-2.45l7.57.09,6.59-.09c-.15,1.34-.24,2.63-.26,3.87h-.74l-.12-1.55a2.26,2.26,0,0,0-.2-1,1,1,0,0,0-.58-.18c-.88-.06-1.87-.09-3-.09Z"/><path class="cls-1" d="M83.62,44.61H76.76l-.82,2a9.71,9.71,0,0,0-.8,2.33.47.47,0,0,0,.15.39,1.83,1.83,0,0,0,.76.19l1.14.13v.74c-.77-.06-1.62-.09-2.57-.09-1.13,0-2.13,0-3,.09v-.74H72a2.58,2.58,0,0,0,1.07-.18,1.73,1.73,0,0,0,.52-.73Q74.41,47,75.28,45l3.26-7.4c.86-2,1.45-3.39,1.77-4.28h.83l6,14a12.76,12.76,0,0,0,.8,1.72,1.18,1.18,0,0,0,.46.41,3.46,3.46,0,0,0,1.17.18v.74c-1-.06-2-.09-2.9-.09s-2,0-3.45.09v-.74l1.17-.07a2.55,2.55,0,0,0,.75-.13.41.41,0,0,0,.18-.34A4.71,4.71,0,0,0,85,48Zm-6.43-1h6l-3-7.2Z"/><path class="cls-1" d="M95.69,49.16c.78,0,1.53.06,2.27.06,1.48,0,2.65,0,3.49-.12a12.64,12.64,0,0,0,1.82-.35L104,46h.74c-.2,1.5-.36,2.91-.48,4.21a18.42,18.42,0,0,1-2.92.18l-5.64-.09c-.77,0-2,0-3.56.09v-.61c.64-.28,1-.57,1.14-.89a21,21,0,0,0,.17-3.76V38.56a22.13,22.13,0,0,0-.17-4c-.12-.28-.44-.41-1-.41H91v-.74c1.89.06,3.14.09,3.76.09.82,0,1.95,0,3.36-.09v.74H96.65c-.42,0-.69.12-.8.36a13.63,13.63,0,0,0-.16,3v7.55l0,3.35Z"/><path class="cls-1" d="M110.79,49.16c.77,0,1.53.06,2.27.06,1.49,0,2.65,0,3.49-.12a12.64,12.64,0,0,0,1.82-.35l.71-2.79h.74c-.2,1.5-.36,2.91-.48,4.21a18.36,18.36,0,0,1-2.91.18l-5.66-.09c-.75,0-1.94,0-3.54.09v-.61c.63-.28,1-.57,1.13-.89a21,21,0,0,0,.17-3.76V38.56a22.13,22.13,0,0,0-.17-4c-.12-.28-.44-.41-1-.41H106.1v-.74c1.89.06,3.14.09,3.76.09q1.24,0,3.36-.09v.74h-1.47c-.42,0-.68.12-.79.36a13.29,13.29,0,0,0-.17,3v7.55l0,3.35Z"/><path class="cls-1" d="M121.53,49.61h.75c.74,0,1.18-.18,1.33-.54a27.82,27.82,0,0,0,.22-5.12v-4a32.86,32.86,0,0,0-.19-5.24c-.13-.33-.51-.49-1.15-.49h-1v-.74c1.32.06,2.64.09,3.93.09,1.07,0,2.05,0,2.93-.09v.74h-.92a1.81,1.81,0,0,0-1.07.2,1.67,1.67,0,0,0-.25,1q-.06,1.28-.06,4.53V44a30.38,30.38,0,0,0,.2,5.1c.14.31.57.47,1.31.47h.79v.74q-1.47-.09-3.21-.09c-1.35,0-2.57,0-3.65.09Z"/><path class="cls-1" d="M134.88,36.11v8.22c0,1.88,0,3.18.11,3.92a1.82,1.82,0,0,0,.28,1,2.36,2.36,0,0,0,1.15.27l.77.06v.74c-.87-.06-1.66-.09-2.36-.09-.48,0-1.59,0-3.34.09v-.74h.86a1.59,1.59,0,0,0,1-.22,1.28,1.28,0,0,0,.3-.84c.08-.87.13-2.06.13-3.55V39.09c0-1.11,0-2.21,0-3.3a2.07,2.07,0,0,0-.18-.94,1.48,1.48,0,0,0-.47-.46,1.65,1.65,0,0,0-.87-.2h-.73v-.74c1,.06,1.77.09,2.3.09s1.19,0,1.87-.09c.78,1,1.52,1.89,2.21,2.8S139.3,38.06,140,39l4.06,5q2.19,2.69,3.16,3.72V40.07a37.06,37.06,0,0,0-.17-5.23c-.12-.3-.57-.49-1.37-.57l-.89-.08v-.74c1.28.06,2.26.09,3,.09s1.69,0,2.85-.09v.74h-.92c-.74,0-1.16.24-1.27.73-.08.33-.11,2.06-.11,5.21v5.35c0,1.45.06,3.17.19,5.17a12.61,12.61,0,0,1-1.87-.36,1.45,1.45,0,0,1-.5-.38c-.87-1-1.8-2-2.76-3.24Z"/><path class="cls-1" d="M155.83,36.11v8.22c0,1.88,0,3.18.11,3.92a1.82,1.82,0,0,0,.28,1,2.31,2.31,0,0,0,1.14.27l.77.06v.74c-.87-.06-1.65-.09-2.35-.09-.48,0-1.6,0-3.34.09v-.74h.86a1.58,1.58,0,0,0,1-.22,1.28,1.28,0,0,0,.3-.84c.09-.87.13-2.06.13-3.55V39.09q0-1.67,0-3.3a2,2,0,0,0-.19-.94,1.38,1.38,0,0,0-.47-.46,1.58,1.58,0,0,0-.86-.2h-.74v-.74c1,.06,1.77.09,2.3.09s1.19,0,1.87-.09c.78,1,1.52,1.89,2.21,2.8S160.24,38.06,161,39l4,5q2.19,2.69,3.17,3.72V40.07a37.06,37.06,0,0,0-.17-5.23c-.12-.3-.58-.49-1.37-.57l-.9-.08v-.74q1.92.09,3,.09t2.85-.09v.74h-.91c-.75,0-1.17.24-1.28.73-.07.33-.11,2.06-.11,5.21v5.35c0,1.45.06,3.17.19,5.17a13.29,13.29,0,0,1-1.87-.36,1.42,1.42,0,0,1-.49-.38q-1.32-1.45-2.77-3.24Z"/><path class="cls-1" d="M182.79,34.19v-.74c1.62.06,2.81.09,3.55.09s1.93,0,3.44-.09v.74h-.87c-.74,0-1.19.14-1.34.42a16.27,16.27,0,0,0-.22,3.87v4.65a15.54,15.54,0,0,0,.27,3.54,2.92,2.92,0,0,0,1.45,1.69,6.22,6.22,0,0,0,3.12.68,7.18,7.18,0,0,0,3.4-.73A3,3,0,0,0,197,46.73a12.6,12.6,0,0,0,.44-4.08V38.18a11.2,11.2,0,0,0-.28-3.55c-.18-.29-.69-.44-1.53-.44H195v-.74c1.64.06,2.68.09,3.13.09.72,0,1.62,0,2.69-.09v.74H200c-.63,0-1,.17-1.21.5a12.06,12.06,0,0,0-.27,3.54v4.46a17.79,17.79,0,0,1-.31,4.1,4.57,4.57,0,0,1-1.11,1.92A5.46,5.46,0,0,1,195,50.06a8.82,8.82,0,0,1-3.15.5,11.13,11.13,0,0,1-3.28-.44A5.66,5.66,0,0,1,186.4,49a3.73,3.73,0,0,1-1-1.6,11.22,11.22,0,0,1-.32-3.2l0-2.26V38.34a17.09,17.09,0,0,0-.2-3.75c-.13-.27-.55-.4-1.26-.4Z"/><path class="cls-1" d="M205.91,36.11v8.22c0,1.88,0,3.18.1,3.92a1.8,1.8,0,0,0,.29,1,2.31,2.31,0,0,0,1.14.27l.77.06v.74c-.87-.06-1.65-.09-2.35-.09-.49,0-1.6,0-3.34.09v-.74h.86a1.58,1.58,0,0,0,1-.22,1.28,1.28,0,0,0,.3-.84c.09-.87.13-2.06.13-3.55V39.09q0-1.67,0-3.3a2,2,0,0,0-.19-.94,1.55,1.55,0,0,0-.46-.46,1.65,1.65,0,0,0-.87-.2h-.74v-.74c1,.06,1.77.09,2.3.09s1.19,0,1.87-.09c.78,1,1.52,1.89,2.21,2.8s1.41,1.81,2.15,2.73l4.06,5q2.19,2.69,3.17,3.72V40.07a34.46,34.46,0,0,0-.18-5.23c-.11-.3-.57-.49-1.37-.57l-.88-.08v-.74q1.9.09,3,.09t2.85-.09v.74h-.92c-.74,0-1.17.24-1.28.73-.07.33-.11,2.06-.11,5.21v5.35c0,1.45.07,3.17.19,5.17a13.29,13.29,0,0,1-1.87-.36,1.42,1.42,0,0,1-.49-.38q-1.32-1.45-2.77-3.24Z"/><path class="cls-1" d="M224.37,49.61h.75c.74,0,1.18-.18,1.33-.54a28.89,28.89,0,0,0,.22-5.12v-4a34.33,34.33,0,0,0-.19-5.24c-.13-.33-.51-.49-1.15-.49h-1v-.74q2,.09,3.93.09c1.07,0,2,0,2.93-.09v.74h-.92a1.81,1.81,0,0,0-1.07.2,1.67,1.67,0,0,0-.25,1q-.06,1.28-.06,4.53V44a30.38,30.38,0,0,0,.2,5.1c.14.31.57.47,1.31.47h.79v.74q-1.47-.09-3.21-.09c-1.35,0-2.57,0-3.65.09Z"/><path class="cls-1" d="M241.41,50.56c-.36-1.06-.72-2.05-1.09-3l-4.27-10.65c-.61-1.54-1-2.38-1.07-2.53s-.45-.21-1-.21h-.49v-.74q1.86.09,3.15.09c.91,0,2,0,3.28-.09v.74h-1.17a1.72,1.72,0,0,0-.77.11.38.38,0,0,0-.18.36,1.63,1.63,0,0,0,0,.35l1.54,4.11,3.26,8.3,3.16-7.91a24.28,24.28,0,0,0,1.57-4.62c0-.36-.22-.54-.65-.56l-.49,0-1-.1v-.74c1,.06,1.91.09,2.58.09s1.6,0,2.67-.09v.74H250a1.08,1.08,0,0,0-.82.27,8.64,8.64,0,0,0-.92,1.9l-4,9.79q-1.12,2.76-1.6,4.41Z"/><path class="cls-1" d="M257.05,42.27v4.6c0,1.05,0,1.82,0,2.3,1.15.09,2.38.13,3.7.13a17.27,17.27,0,0,0,2.23-.12,5.71,5.71,0,0,0,1.24-.3c.19-.7.39-1.57.6-2.62h.78a34.48,34.48,0,0,0-.33,3.47l0,.53c-.9.09-1.8.13-2.68.13l-1.86,0q-3.09-.09-4.53-.09t-3.69.09v-.74H253a2.68,2.68,0,0,0,1.31-.2,1.4,1.4,0,0,0,.35-1c.06-.5.1-1.6.1-3.3V38.62c0-1.07,0-1.94-.08-2.62a5.16,5.16,0,0,0-.17-1.22.66.66,0,0,0-.26-.31,3.33,3.33,0,0,0-1-.19l-.92-.09v-.74h1.28l1.26,0c.7,0,1.23,0,1.6,0l4.55-.08h2.16a20.7,20.7,0,0,1,2.22.09,14,14,0,0,0-.47,3.65h-.78A16.12,16.12,0,0,0,264,35a10.19,10.19,0,0,0-3.45-.52c-1.09,0-2.23,0-3.41.14,0,.75,0,1.49,0,2.23l0,1.83v2.4c.79.06,1.49.09,2.09.09a12.32,12.32,0,0,0,3.22-.2c.26-.13.38-.54.38-1.23V39h.78c0,1.2-.08,2.16-.08,2.88s0,1.65.08,2.68h-.78v-.7c0-.76-.15-1.22-.45-1.4a10.59,10.59,0,0,0-3.16-.25c-.67,0-1.36,0-2.08.09"/><path class="cls-1" d="M277.81,41.78q1.15,1.68,2.88,3.9l2.28,3a3.9,3.9,0,0,0,.81.87.84.84,0,0,0,.41.11h.31v.74c-.66-.06-1.24-.09-1.73-.09a12.06,12.06,0,0,0-1.43.09l-4.19-5.68c-.78-1-1.62-2.06-2.51-3.06l.12-.4c.45,0,.79.06,1,.06a4.4,4.4,0,0,0,3.09-1A3.5,3.5,0,0,0,280,37.52a3.08,3.08,0,0,0-1-2.39,3.89,3.89,0,0,0-2.72-.85,7.59,7.59,0,0,0-2.49.43c-.09,1.26-.14,2.61-.14,4V44.5a25.75,25.75,0,0,0,.2,4.65c.14.31.57.46,1.31.46h.92v.74c-1.32-.06-2.41-.09-3.28-.09-.68,0-1.92,0-3.71.09v-.74h.9c.68,0,1.08-.15,1.21-.45a26.54,26.54,0,0,0,.19-4.69V38.75a18.22,18.22,0,0,0-.22-4.12c-.14-.29-.63-.44-1.44-.44h-.64v-.74c1.47.06,2.6.09,3.37.09.53,0,1.28,0,2.26-.07q1.71-.06,2.46-.06a8.65,8.65,0,0,1,3.12.43,3.25,3.25,0,0,1,2.17,3.22,4.18,4.18,0,0,1-1.21,3,6.47,6.47,0,0,1-3.48,1.76"/><path class="cls-1" d="M298.37,34.29a13.13,13.13,0,0,0-.35,3.24h-.83v-.94a2.18,2.18,0,0,0-.25-1.25,3,3,0,0,0-1.29-.69,6.53,6.53,0,0,0-2.21-.37,4.37,4.37,0,0,0-3,.94,3,3,0,0,0-1.08,2.42,2.78,2.78,0,0,0,.44,1.6,2.49,2.49,0,0,0,1.2,1,14.54,14.54,0,0,0,3.19.53,12.26,12.26,0,0,1,3.31.63,3,3,0,0,1,1.37,1.27,4,4,0,0,1,.52,2.06,5.3,5.3,0,0,1-2,4.13,7.8,7.8,0,0,1-5.32,1.73,12.12,12.12,0,0,1-2.3-.23,14.33,14.33,0,0,1-2.33-.7,22.17,22.17,0,0,0,.22-3.58h.83v.58a4.75,4.75,0,0,0,.11,1.39,1.56,1.56,0,0,0,.56.57,4.94,4.94,0,0,0,1.54.69,7.53,7.53,0,0,0,1.94.24,5.12,5.12,0,0,0,3.45-1.05,3.4,3.4,0,0,0,1.22-2.68,3,3,0,0,0-.42-1.6,2.57,2.57,0,0,0-1.16-1,9.85,9.85,0,0,0-2.77-.49,12.54,12.54,0,0,1-3.64-.64,3.2,3.2,0,0,1-1.5-1.34,4.33,4.33,0,0,1-.55-2.28A4.8,4.8,0,0,1,289,34.7a6.79,6.79,0,0,1,4.63-1.47,11.34,11.34,0,0,1,2.38.26,12.76,12.76,0,0,1,2.4.8"/><path class="cls-1" d="M302.88,49.61h.75c.74,0,1.18-.18,1.33-.54a28.89,28.89,0,0,0,.22-5.12v-4a32.86,32.86,0,0,0-.19-5.24c-.13-.33-.51-.49-1.14-.49h-1v-.74q2,.09,3.93.09c1.07,0,2.05,0,2.93-.09v.74h-.92a1.81,1.81,0,0,0-1.07.2,1.67,1.67,0,0,0-.25,1q-.06,1.28-.06,4.53V44a30.38,30.38,0,0,0,.2,5.1c.14.31.57.47,1.31.47h.79v.74q-1.47-.09-3.21-.09c-1.35,0-2.56,0-3.65.09Z"/><path class="cls-1" d="M321.3,34.54c-.09,1.18-.13,2.43-.13,3.75v6.77a20.79,20.79,0,0,0,.19,4.16q.18.39,1.35.39h.89v.74q-2.12-.09-3.57-.09c-1,0-2.17,0-3.55.09v-.74h1a1.73,1.73,0,0,0,1-.21,1.29,1.29,0,0,0,.29-.81c.08-.93.12-2.13.12-3.59V38.22c0-1.34,0-2.57-.08-3.68h-1.22a18.21,18.21,0,0,0-3.23.13c-.19.09-.32.45-.39,1.06l-.16,1.59h-.74l0-1.42c0-.56-.05-1.38-.15-2.45l7.57.09,6.59-.09c-.15,1.34-.24,2.63-.26,3.87h-.74L326,35.77a2.43,2.43,0,0,0-.2-1,1,1,0,0,0-.59-.18c-.87-.06-1.87-.09-3-.09Z"/><path class="cls-1" d="M337.15,42q.72-1.1,2.3-3.79l2.73-4.72H344v.3a39.39,39.39,0,0,0-3.56,4.9A31.77,31.77,0,0,0,337.92,43a9.75,9.75,0,0,0-.12,2c0,1.43,0,2.57.1,3.42.05.45.12.72.24.81a3.19,3.19,0,0,0,1.2.23l.89.1v.74c-1.38-.06-2.45-.09-3.23-.09l-3.81.09v-.74h1c.68,0,1.09-.14,1.22-.42a17.28,17.28,0,0,0,.2-3.76c0-.65,0-1.36,0-2.13q-1.53-2.82-2.84-4.87a21.82,21.82,0,0,0-2.19-3,3.3,3.3,0,0,0-.86-.69,3.45,3.45,0,0,0-1.22-.16v-.74l1.91-.4.95-.21a2.78,2.78,0,0,1,.87.51A14.78,14.78,0,0,1,334,36.3c.63,1,1.66,2.92,3.12,5.66"/><path class="cls-2" d="M0,53.32H.93A42.87,42.87,0,0,1,16.15,56V32.9c0-4.31,1.62-6.65,3.93-8.21,2.24,1.58,4,4,4,8.21L24,60.09a33.23,33.23,0,0,1,5.31,4.42l0-31.73c0-7.23-3.84-11.25-8.06-13.73a10.33,10.33,0,0,0-1.2-.6,11.14,11.14,0,0,0-1.2.6,15.11,15.11,0,0,0-8.06,13.73V50.45H5.33l0-17.29C5.31,18.83,11.59,11.27,20,6.49c7.89,4.78,14.69,12.34,14.69,26.67l0,17.29H40l0-17.61c0-17-8.85-26.32-19-32.33A8,8,0,0,0,20,0,8.62,8.62,0,0,0,19,.51C9.25,6.06,0,15.83,0,32.84Z"/></g></g></svg>