<svg xmlns="http://www.w3.org/2000/svg" viewBox="0 0 762.19 250.6"><defs><style>.cls-1{fill:#b5121b;}.cls-2{fill:none;stroke:#b5121b;stroke-width:2px;fill-rule:evenodd;}</style></defs><title>Asset 6</title><g id="Layer_2" data-name="Layer 2"><g id="Layer_1-2" data-name="Layer 1"><path class="cls-1" d="M266.24,24.11c1.27-2.54,2.72-1.17,5.08,0,5.07,2.54,6.34,3.81,7.61,5.08,3.24,3.24,6.35,6.34,6.27,13.55-.1,9.33-4.86,18.86-14.57,28.6S251.39,86,242.07,86a21.19,21.19,0,0,1-15.86-6.41Q220,73.13,220,63.1q0-21.52,21.26-38.6a74.67,74.67,0,0,1,48-17.07q22.79,0,34.35,16.83Q340.52,8.67,358,8.68q8.71,0,14.12,5.64t5.4,14.76a35.46,35.46,0,0,1-.83,7.44c-.55,2.6-1.08,3.91-1.59,3.91a.37.37,0,0,1-.42-.42,2.93,2.93,0,0,1,.14-.9,28,28,0,0,0,1.59-9.89q0-8.71-5.29-14t-14-5.29q-16.76,0-32.48,15.92a48.75,48.75,0,0,1,6,23.4q0,22.71-17.41,38.5t-42.55,15.78a143.72,143.72,0,0,1-21.25-2.14,124.55,124.55,0,0,1-22.44,2.14q-18.27,0-18.27-3.67c0-1.2,1.48-2.26,4.46-3.18a35.39,35.39,0,0,1,10.42-1.39q7.2,0,28.66,4.71Q266.65,96.19,275,88q8.1-8,24.86-34.68A138.73,138.73,0,0,1,322,25.71q-10.11-17-32.75-17-23.4,0-42.92,18.42a77.56,77.56,0,0,0-15.72,20.49q-5.88,11.22-5.88,20.63,0,7.48,4.74,12t12.57,4.5q13.22,0,27.45-14.26C279,60.93,283.38,51.78,283.75,43c.26-6.22-2.28-8.75-6.09-12.56-1.94-1.94-6.34-3.81-8.88-5.08ZM246.91,101q-19.11-2.7-28.52-2.7-8.31,0-8.31,1.59,0,2.43,18.14,2.43A119.87,119.87,0,0,0,246.91,101Zm79.9-56.84a37.81,37.81,0,0,0-3.74-16.62q-9.35,10.66-16.75,26.8Q296.56,75.7,286.1,85.12q-10.8,9.61-31.64,15.44a90.33,90.33,0,0,0,18.71,1.87q26.54,0,43-25.69Q326.81,60.12,326.81,44.13Z"/><path class="cls-1" d="M466.87,12.77q0,4.9-12.08,18.9A145.57,145.57,0,0,1,431.29,54q-8.66,19-17.87,27.69T388.55,94.46c18.37,4.9,54.74,11.55,58.36,12.36A47.81,47.81,0,0,0,457.33,108c4.8,0,24.11.07,29.08-2a4.08,4.08,0,0,0,1.64-.74,3.68,3.68,0,0,1,1.71-.12c0,.88-3.88,1.57-6,2.28-5.25,1.76-27,3.69-35.61,3.69-6.32,0-37.79-4.41-43.65-5.61s-14.79-3.71-26.79-7.55a121.89,121.89,0,0,1-23.8,2.29q-21.74,0-21.74-6.65,0-6.22,16.61-6.23,12.88,0,38.42,6.65a39.7,39.7,0,0,0,13.54-8.83q5.93-5.85,14.93-19.42-20.62,18-38.56,18-12.19,0-19.42-7.2t-7.24-19.45q0-18.76,17.76-35.59T405.74,4.73q9.13,0,14.57,4.71t5.44,12.74q0,14.19-13.3,29.36T386.77,66.7a12.74,12.74,0,0,1-8.9-3.32c-2.42-2.22-4.34-8.9-4.64-12.11-.38-4,.28-10.18,1.82-12s1.63-3.15.77.35c-.24,1-1.62,6.81-1,11.31.41,2.88,2,9.62,4.14,11.56a11.92,11.92,0,0,0,8.2,2.9q11.43,0,24.34-14.92t12.91-28.14a15.42,15.42,0,0,0-4.88-11.74A17.51,17.51,0,0,0,407.06,6Q388.7,6,371.92,24.33T355.13,62.55q0,9.35,6,14.67t16.44,5.34a39.75,39.75,0,0,0,17.9-4.44q8.9-4.43,21.91-15.44,10.88-18.19,15.79-25.27A117.53,117.53,0,0,1,444.44,23.7Q457.25,10.28,464,10.27C465.93,10.27,466.87,11.1,466.87,12.77ZM375.4,97.3q-24.3-7.68-33-7.68-9.08,0-9.07,4,0,5.4,21.25,5.4A114.25,114.25,0,0,0,375.4,97.3Zm90.3-84.53c0-1-.56-1.53-1.67-1.53q-5.11,0-14,10.46Q442,31,432.25,52A175,175,0,0,0,454.9,29.69Q465.7,17.06,465.7,12.77Z"/><path class="cls-1" d="M482.18,106.9a24.55,24.55,0,0,0,14.51-7.69q7.44-7.68,8.41-16a19.43,19.43,0,0,1-3.53.28q-8.86,0-14-6t-5.12-16.24Q465,62.38,452,75.78t-13,30.15a20.21,20.21,0,0,0,7.44,16.27q7.44,6.22,19.49,6.23,16.35,0,29.7-11.56t31-41A188.16,188.16,0,0,1,538,58.71q-18.63,20.7-31.72,24.23a31,31,0,0,1-8.89,17.28,24.73,24.73,0,0,1-15.2,7.79M537.34,20.3c-1.51-6.59-17-17.4-28.09-18.92C496.4-.37,484.41,5,473.63,12.15s-16.17,15.08-16.17,23.71a14.35,14.35,0,0,0,6.37,12.43q6.38,4.47,17.73,4.47H484c5.4-17.68,22.35-32.36,50.69-44.09l1.12-.34c4.84-1.8,8.54-2.79,10.85-2.79q6.72,0,6.72,5.54,0,5.12-7.83,12.74l-1,.83a135.15,135.15,0,0,1-25.79,17.76,109.5,109.5,0,0,1-27.1,10.49,32.09,32.09,0,0,0-3.4,7.47q18.28,3.12,18.28,19.87v1.39q13.79-3.73,33.86-27.35a103.6,103.6,0,0,1,9.21-12.46c3.14-3.6,5.28-5.4,6.44-5.4a.54.54,0,0,1,.55.41q0,1.74-5.37,8.07a93.14,93.14,0,0,1-10.83,11,111.93,111.93,0,0,0-7.2,13.05,157.29,157.29,0,0,0-5.68,16.31q-4.21,13.58-10.42,21.53T499.7,121a67,67,0,0,1-32.89,8.93q-14.26,0-23.05-7.76T435,101.78a35.38,35.38,0,0,1,6.65-20.39,48.66,48.66,0,0,1,18.17-15.62q11.54-5.94,21.36-5.95a7,7,0,0,1,1.46.14,32.94,32.94,0,0,1,1-6.09,28.39,28.39,0,0,1-3,.13q-11.14,0-17.76-4.91A15.51,15.51,0,0,1,456.22,36q0-14.12,16-25.06T509,0c11,0,30.61,11.83,31.21,19.17ZM505.37,82q.5-8.25-4.08-13.61t-13.15-6.82a24.64,24.64,0,0,0-1,7.06,12.91,12.91,0,0,0,4,9.9q4,3.75,10.49,3.74A25.55,25.55,0,0,0,505.37,82ZM536.05,9.76a101.38,101.38,0,0,0-24.65,17.9,102.72,102.72,0,0,0-19,23.92A109.32,109.32,0,0,0,518.84,41,135.65,135.65,0,0,0,544.29,23.4l1-.85c4.53-4.39,6.76-8.19,6.76-11.33s-1.75-4.57-5.26-4.57q-4,0-9.63,2.7Z"/><path class="cls-2" d="M761.19,249.65c.3-49.65-39.7-96.65-90.7-99.65-2-1-6,0-6-2-2-17,0-35-5-52-2-5-3-10-7-15-1-1,0-3-1-4-3-5-6-8-10-13-24-32-65-49-104.18-44.31"/><path class="cls-2" d="M271.32,25.38c-12.29-6.84-27.7-5.33-41.24-5-14.27.33-28.3,1.83-41.91,6.31a129.13,129.13,0,0,0-61,42.83c-16.07,20.56-25.91,46.22-26.95,72.34-.07,1.78.56,5.81-1.16,6.81-.67.39-2.65.11-3.38.17-2,.14-4,.37-6,.64a101.7,101.7,0,0,0-21,5.2A102.74,102.74,0,0,0,1,250.59"/></g></g></svg>