<svg xmlns="http://www.w3.org/2000/svg" viewBox="0 0 762.19 297.07"><defs><style>.cls-1{fill:#b5121b;}.cls-2,.cls-3{fill:none;stroke:#b5121b;stroke-width:2px;}.cls-2{fill-rule:evenodd;}</style></defs><title>Asset 6</title><g id="Layer_2" data-name="Layer 2"><g id="Layer_1-2" data-name="Layer 1"><path class="cls-1" d="M266.24,24.11c1.27-2.54,2.73-1.17,5.08,0,5.08,2.54,6.34,3.81,7.61,5.08,3.24,3.24,6.35,6.34,6.27,13.55-.1,9.33-4.86,18.86-14.57,28.6S251.39,86,242.07,86a21.19,21.19,0,0,1-15.86-6.41Q220,73.13,220,63.1q0-21.52,21.26-38.6A74.7,74.7,0,0,1,289.29,7.43q22.77,0,34.34,16.83Q340.52,8.67,358,8.68q8.71,0,14.12,5.64t5.4,14.76a35.46,35.46,0,0,1-.83,7.44c-.55,2.6-1.08,3.91-1.59,3.91a.37.37,0,0,1-.42-.42,2.93,2.93,0,0,1,.14-.9,28,28,0,0,0,1.6-9.89q0-8.71-5.3-14t-14-5.29q-16.76,0-32.47,15.92a48.74,48.74,0,0,1,5.95,23.4q0,22.71-17.41,38.5t-42.55,15.78a143.72,143.72,0,0,1-21.25-2.14,124.44,124.44,0,0,1-22.43,2.14q-18.28,0-18.28-3.67,0-1.8,4.46-3.18a35.39,35.39,0,0,1,10.42-1.39q7.2,0,28.67,4.71Q266.64,96.19,275,88q8.1-8,24.85-34.68A138.41,138.41,0,0,1,322,25.71q-10.11-17-32.75-17-23.42,0-42.93,18.42a78,78,0,0,0-15.72,20.49q-5.88,11.22-5.88,20.63,0,7.48,4.74,12t12.57,4.5q13.22,0,27.45-14.26C279,60.93,283.38,51.78,283.75,43c.26-6.22-2.28-8.75-6.09-12.56-1.94-1.94-6.34-3.81-8.88-5.08ZM246.91,101q-19.09-2.7-28.52-2.7-8.31,0-8.31,1.59,0,2.43,18.14,2.43A119.78,119.78,0,0,0,246.91,101Zm79.9-56.84a37.67,37.67,0,0,0-3.74-16.62q-9.35,10.66-16.75,26.8Q296.56,75.7,286.1,85.12q-10.8,9.61-31.64,15.44a90.4,90.4,0,0,0,18.71,1.87q26.55,0,43-25.69Q326.81,60.12,326.81,44.13Z"/><path class="cls-1" d="M466.88,12.77q0,4.9-12.09,18.9A145.16,145.16,0,0,1,431.29,54q-8.66,19-17.87,27.69T388.55,94.46c18.37,4.9,54.74,11.55,58.37,12.36A47.66,47.66,0,0,0,457.33,108c4.8,0,24.11.07,29.08-2a4.1,4.1,0,0,0,1.65-.74,3.63,3.63,0,0,1,1.7-.12c0,.88-3.88,1.57-6,2.28-5.26,1.76-27,3.69-35.61,3.69-6.32,0-37.8-4.41-43.66-5.61s-14.79-3.71-26.78-7.55a122.07,122.07,0,0,1-23.81,2.29q-21.74,0-21.74-6.65,0-6.22,16.62-6.23,12.87,0,38.41,6.65a39.7,39.7,0,0,0,13.54-8.83q5.93-5.85,14.93-19.42-20.62,18-38.56,18-12.19,0-19.42-7.2t-7.24-19.45q0-18.76,17.76-35.59T405.74,4.73q9.13,0,14.57,4.71t5.44,12.74q0,14.19-13.29,29.36T386.77,66.7a12.74,12.74,0,0,1-8.9-3.32c-2.42-2.22-4.34-8.9-4.64-12.11-.38-4,.28-10.18,1.82-12s1.63-3.15.78.35c-.24,1-1.62,6.81-1,11.31.41,2.88,2,9.62,4.14,11.56a11.93,11.93,0,0,0,8.21,2.9q11.42,0,24.33-14.92t12.91-28.14a15.42,15.42,0,0,0-4.88-11.74A17.51,17.51,0,0,0,407.06,6q-18.35,0-35.14,18.35T355.13,62.55q0,9.35,6,14.67t16.44,5.34a39.75,39.75,0,0,0,17.9-4.44q8.9-4.43,21.91-15.44,10.88-18.19,15.79-25.27A116.66,116.66,0,0,1,444.45,23.7Q457.25,10.28,464,10.27C465.93,10.27,466.88,11.1,466.88,12.77ZM375.4,97.3q-24.28-7.68-33-7.68-9.08,0-9.07,4,0,5.4,21.25,5.4A114.25,114.25,0,0,0,375.4,97.3Zm90.3-84.53c0-1-.56-1.53-1.66-1.53q-5.13,0-14.06,10.46Q442,31,432.26,52A174.91,174.91,0,0,0,454.9,29.69Q465.7,17.06,465.7,12.77Z"/><path class="cls-1" d="M482.18,106.9a24.52,24.52,0,0,0,14.51-7.69q7.44-7.68,8.41-16a19.43,19.43,0,0,1-3.53.28q-8.86,0-14-6t-5.12-16.24Q465,62.38,452,75.78t-13,30.15a20.21,20.21,0,0,0,7.44,16.27q7.45,6.22,19.49,6.23,16.35,0,29.71-11.56t31-41A186,186,0,0,1,538,58.71q-18.63,20.7-31.71,24.23a31.1,31.1,0,0,1-8.9,17.28,24.73,24.73,0,0,1-15.2,7.79M537.34,20.3c-1.51-6.59-17-17.4-28.09-18.92C496.4-.37,484.41,5,473.63,12.15s-16.16,15.08-16.16,23.71a14.33,14.33,0,0,0,6.37,12.43q6.36,4.47,17.72,4.47H484c5.4-17.68,22.35-32.36,50.69-44.09l1.12-.34c4.85-1.8,8.54-2.79,10.85-2.79q6.72,0,6.72,5.54,0,5.12-7.83,12.74l-1,.83a135.23,135.23,0,0,1-25.8,17.76,109.5,109.5,0,0,1-27.1,10.49,31.64,31.64,0,0,0-3.39,7.47q18.27,3.12,18.27,19.87v1.39q13.79-3.73,33.86-27.35a103.6,103.6,0,0,1,9.21-12.46c3.14-3.6,5.28-5.4,6.44-5.4a.54.54,0,0,1,.55.41q0,1.74-5.36,8.07a94,94,0,0,1-10.84,11,111.93,111.93,0,0,0-7.2,13.05,157.29,157.29,0,0,0-5.68,16.31q-4.21,13.58-10.42,21.53T499.7,121a67,67,0,0,1-32.89,8.93q-14.26,0-23.05-7.76T435,101.78a35.38,35.38,0,0,1,6.65-20.39,48.61,48.61,0,0,1,18.18-15.62q11.52-5.94,21.35-5.95a7,7,0,0,1,1.46.14,32.94,32.94,0,0,1,1-6.09,28.26,28.26,0,0,1-3,.13q-11.14,0-17.76-4.91A15.51,15.51,0,0,1,456.22,36q0-14.12,16-25.06T509,0c11,0,30.61,11.83,31.22,19.17ZM505.38,82q.48-8.25-4.09-13.61t-13.15-6.82a25,25,0,0,0-1,7.06,12.91,12.91,0,0,0,4,9.9q4,3.75,10.49,3.74A25.69,25.69,0,0,0,505.38,82ZM536.05,9.76a101.57,101.57,0,0,0-24.65,17.9,102.72,102.72,0,0,0-19,23.92A109,109,0,0,0,518.84,41,135.65,135.65,0,0,0,544.29,23.4l1-.85c4.52-4.39,6.75-8.19,6.75-11.33s-1.75-4.57-5.26-4.57a23,23,0,0,0-9.62,2.7Z"/><path class="cls-2" d="M761.19,296.82V251.28a102.8,102.8,0,0,0-97.72-102.67v-.13c0-60.29-11.61-86.08-61.34-115.91-18.34-11-41.06-12.88-64.82-12.88"/><line class="cls-3" x1="1" y1="288.58" x2="1" y2="297.07"/><path class="cls-2" d="M271.32,25.38c-11.42-6.34-19.54-5.07-43.15-5.07A128.17,128.17,0,0,0,100,148.48v.1A102.78,102.78,0,0,0,1,251.28v37.3"/></g></g></svg>